<?xml version="1.0" encoding="utf-8" standalone="no"?>
<!DOCTYPE svg PUBLIC "-//W3C//DTD SVG 1.1//EN"
  "http://www.w3.org/Graphics/SVG/1.1/DTD/svg11.dtd">
<!-- Created with matplotlib (https://matplotlib.org/) -->
<svg height="345.6pt" version="1.1" viewBox="0 0 460.8 345.6" width="460.8pt" xmlns="http://www.w3.org/2000/svg" xmlns:xlink="http://www.w3.org/1999/xlink">
 <defs>
  <style type="text/css">
*{stroke-linecap:butt;stroke-linejoin:round;}
  </style>
 </defs>
 <g id="figure_1">
  <g id="patch_1">
   <path d="M 0 345.6 
L 460.8 345.6 
L 460.8 0 
L 0 0 
z
" style="fill:#ffffff;"/>
  </g>
  <g id="axes_1">
   <g id="patch_2">
    <path d="M 57.6 307.584 
L 414.72 307.584 
L 414.72 41.472 
L 57.6 41.472 
z
" style="fill:#ffffff;"/>
   </g>
   <g id="PolyCollection_1">
    <defs>
     <path d="M 57.6 -187.76315 
L 57.6 -148.061116 
L 61.568 -149.42249 
L 65.536 -153.141533 
L 69.504 -153.364388 
L 73.472 -153.55314 
L 77.44 -154.004938 
L 81.408 -154.126318 
L 85.376 -157.037135 
L 89.344 -162.926537 
L 93.312 -171.862474 
L 97.28 -183.561538 
L 101.248 -196.250315 
L 105.216 -208.73548 
L 109.184 -216.372744 
L 113.152 -218.377055 
L 117.12 -214.889415 
L 121.088 -209.032189 
L 125.056 -199.479755 
L 129.024 -186.37427 
L 132.992 -173.848315 
L 136.96 -163.310535 
L 140.928 -149.658022 
L 144.896 -141.317388 
L 148.864 -133.191796 
L 152.832 -126.241612 
L 156.8 -121.765928 
L 160.768 -119.13875 
L 164.736 -116.907237 
L 168.704 -121.909445 
L 172.672 -132.124546 
L 176.64 -146.206554 
L 180.608 -158.228181 
L 184.576 -174.122164 
L 188.544 -186.491913 
L 192.512 -193.668666 
L 196.48 -196.379157 
L 200.448 -192.180648 
L 204.416 -185.443432 
L 208.384 -175.353563 
L 212.352 -161.807706 
L 216.32 -147.056852 
L 220.288 -132.633489 
L 224.256 -116.774731 
L 228.224 -107.78722 
L 232.192 -105.427436 
L 236.16 -113.611971 
L 240.128 -118.418501 
L 244.096 -133.985077 
L 248.064 -152.402604 
L 252.032 -168.546411 
L 256 -181.523956 
L 259.968 -188.263585 
L 263.936 -186.883213 
L 267.904 -181.121328 
L 271.872 -174.209233 
L 275.84 -167.023911 
L 279.808 -160.094858 
L 283.776 -152.218075 
L 287.744 -146.30195 
L 291.712 -143.777015 
L 295.68 -142.634701 
L 299.648 -136.331374 
L 303.616 -128.014196 
L 307.584 -122.04557 
L 311.552 -121.872396 
L 315.52 -127.690483 
L 319.488 -143.020818 
L 323.456 -160.208715 
L 327.424 -176.86117 
L 331.392 -194.472084 
L 335.36 -207.669376 
L 339.328 -212.036641 
L 343.296 -210.062313 
L 347.264 -207.021905 
L 351.232 -199.574451 
L 355.2 -190.235609 
L 359.168 -183.055205 
L 363.136 -177.628581 
L 367.104 -173.613813 
L 371.072 -168.96145 
L 375.04 -163.058317 
L 379.008 -161.839479 
L 382.976 -160.646499 
L 386.944 -159.195517 
L 390.912 -154.216397 
L 394.88 -147.490217 
L 398.848 -141.253884 
L 402.816 -140.143646 
L 406.784 -143.364873 
L 410.752 -168.097386 
L 414.72 -168.097386 
L 414.72 -193.980788 
L 414.72 -193.980788 
L 410.752 -193.980788 
L 406.784 -194.838545 
L 402.816 -188.754917 
L 398.848 -184.227751 
L 394.88 -178.228289 
L 390.912 -176.037417 
L 386.944 -175.673249 
L 382.976 -180.677149 
L 379.008 -189.701353 
L 375.04 -198.870277 
L 371.072 -212.422986 
L 367.104 -222.992193 
L 363.136 -233.723824 
L 359.168 -242.862255 
L 355.2 -247.934328 
L 351.232 -253.069345 
L 347.264 -255.01588 
L 343.296 -251.589745 
L 339.328 -246.912182 
L 335.36 -239.826151 
L 331.392 -231.597742 
L 327.424 -223.961711 
L 323.456 -216.542157 
L 319.488 -206.081623 
L 315.52 -196.031821 
L 311.552 -189.763293 
L 307.584 -182.151187 
L 303.616 -177.875488 
L 299.648 -178.17611 
L 295.68 -186.141459 
L 291.712 -197.540514 
L 287.744 -208.770128 
L 283.776 -220.208718 
L 279.808 -232.485265 
L 275.84 -239.933327 
L 271.872 -241.840374 
L 267.904 -234.931998 
L 263.936 -225.198378 
L 259.968 -213.895362 
L 256 -204.273589 
L 252.032 -201.115472 
L 248.064 -199.486798 
L 244.096 -198.651809 
L 240.128 -197.557869 
L 236.16 -195.017335 
L 232.192 -193.232084 
L 228.224 -191.670535 
L 224.256 -193.168308 
L 220.288 -193.621489 
L 216.32 -199.495968 
L 212.352 -204.470629 
L 208.384 -210.839744 
L 204.416 -217.684352 
L 200.448 -221.770461 
L 196.48 -225.477089 
L 192.512 -223.256179 
L 188.544 -218.119714 
L 184.576 -212.742643 
L 180.608 -205.147397 
L 176.64 -196.684282 
L 172.672 -190.567873 
L 168.704 -182.449199 
L 164.736 -177.540087 
L 160.768 -173.688121 
L 156.8 -175.594051 
L 152.832 -179.438361 
L 148.864 -186.918986 
L 144.896 -201.821533 
L 140.928 -211.270376 
L 136.96 -227.237192 
L 132.992 -237.817337 
L 129.024 -247.176243 
L 125.056 -257.012398 
L 121.088 -260.470085 
L 117.12 -259.722311 
L 113.152 -254.65997 
L 109.184 -249.05267 
L 105.216 -244.165674 
L 101.248 -237.781419 
L 97.28 -232.225418 
L 93.312 -225.791283 
L 89.344 -215.492184 
L 85.376 -210.014586 
L 81.408 -203.689117 
L 77.44 -195.50296 
L 73.472 -194.196836 
L 69.504 -192.195431 
L 65.536 -188.138414 
L 61.568 -186.078832 
L 57.6 -187.76315 
z
" id="mb50850cf33" style="stroke:#0000ff;stroke-opacity:0.2;"/>
    </defs>
    <g clip-path="url(#pb1c3715327)">
     <use style="fill:#0000ff;fill-opacity:0.2;stroke:#0000ff;stroke-opacity:0.2;" x="0" xlink:href="#mb50850cf33" y="345.6"/>
    </g>
   </g>
   <g id="matplotlib.axis_1">
    <g id="xtick_1">
     <g id="line2d_1">
      <defs>
       <path d="M 0 0 
L 0 3.5 
" id="m4ef603065b" style="stroke:#000000;stroke-width:0.8;"/>
      </defs>
      <g>
       <use style="stroke:#000000;stroke-width:0.8;" x="57.6" xlink:href="#m4ef603065b" y="307.584"/>
      </g>
     </g>
     <g id="text_1">
      <!-- 0 -->
      <defs>
       <path d="M 27.046875 69.921875 
Q 40.625 69.921875 46.6875 58.734375 
Q 51.375 50.09375 51.375 35.0625 
Q 51.375 20.796875 47.125 11.46875 
Q 40.96875 -1.90625 27 -1.90625 
Q 14.40625 -1.90625 8.25 9.03125 
Q 3.125 18.171875 3.125 33.546875 
Q 3.125 45.453125 6.203125 54 
Q 11.96875 69.921875 27.046875 69.921875 
z
M 26.953125 6.109375 
Q 33.796875 6.109375 37.84375 12.15625 
Q 41.890625 18.21875 41.890625 34.71875 
Q 41.890625 46.625 38.953125 54.3125 
Q 36.03125 62.015625 27.59375 62.015625 
Q 19.828125 62.015625 16.234375 54.703125 
Q 12.640625 47.40625 12.640625 33.203125 
Q 12.640625 22.515625 14.9375 16.015625 
Q 18.453125 6.109375 26.953125 6.109375 
z
" id="Helvetica-48"/>
      </defs>
      <g transform="translate(52.039062 328.930875)scale(0.2 -0.2)">
       <use xlink:href="#Helvetica-48"/>
      </g>
     </g>
    </g>
    <g id="xtick_2">
     <g id="line2d_2">
      <g>
       <use style="stroke:#000000;stroke-width:0.8;" x="97.28" xlink:href="#m4ef603065b" y="307.584"/>
      </g>
     </g>
     <g id="text_2">
      <!-- 5 -->
      <defs>
       <path d="M 12.359375 17.828125 
Q 13.234375 10.296875 19.34375 7.421875 
Q 22.46875 5.953125 26.5625 5.953125 
Q 34.375 5.953125 38.125 10.9375 
Q 41.890625 15.921875 41.890625 21.96875 
Q 41.890625 29.296875 37.421875 33.296875 
Q 32.953125 37.3125 26.703125 37.3125 
Q 22.171875 37.3125 18.921875 35.546875 
Q 15.671875 33.796875 13.375 30.671875 
L 5.765625 31.109375 
L 11.078125 68.75 
L 47.40625 68.75 
L 47.40625 60.25 
L 17.671875 60.25 
L 14.703125 40.828125 
Q 17.140625 42.671875 19.34375 43.609375 
Q 23.25 45.21875 28.375 45.21875 
Q 37.984375 45.21875 44.671875 39.015625 
Q 51.375 32.8125 51.375 23.296875 
Q 51.375 13.375 45.234375 5.796875 
Q 39.109375 -1.765625 25.6875 -1.765625 
Q 17.140625 -1.765625 10.5625 3.046875 
Q 4 7.859375 3.21875 17.828125 
z
" id="Helvetica-53"/>
      </defs>
      <g transform="translate(91.719063 328.930875)scale(0.2 -0.2)">
       <use xlink:href="#Helvetica-53"/>
      </g>
     </g>
    </g>
    <g id="xtick_3">
     <g id="line2d_3">
      <g>
       <use style="stroke:#000000;stroke-width:0.8;" x="136.96" xlink:href="#m4ef603065b" y="307.584"/>
      </g>
     </g>
     <g id="text_3">
      <!-- 10 -->
      <defs>
       <path d="M 9.578125 49.515625 
L 9.578125 56.25 
Q 19.09375 57.171875 22.84375 59.34375 
Q 26.609375 61.53125 28.46875 69.625 
L 35.40625 69.625 
L 35.40625 0 
L 26.03125 0 
L 26.03125 49.515625 
z
" id="Helvetica-49"/>
      </defs>
      <g transform="translate(125.838125 328.930875)scale(0.2 -0.2)">
       <use xlink:href="#Helvetica-49"/>
       <use x="55.615234" xlink:href="#Helvetica-48"/>
      </g>
     </g>
    </g>
    <g id="xtick_4">
     <g id="line2d_4">
      <g>
       <use style="stroke:#000000;stroke-width:0.8;" x="176.64" xlink:href="#m4ef603065b" y="307.584"/>
      </g>
     </g>
     <g id="text_4">
      <!-- 15 -->
      <g transform="translate(165.518125 328.930875)scale(0.2 -0.2)">
       <use xlink:href="#Helvetica-49"/>
       <use x="55.615234" xlink:href="#Helvetica-53"/>
      </g>
     </g>
    </g>
    <g id="xtick_5">
     <g id="line2d_5">
      <g>
       <use style="stroke:#000000;stroke-width:0.8;" x="216.32" xlink:href="#m4ef603065b" y="307.584"/>
      </g>
     </g>
     <g id="text_5">
      <!-- 20 -->
      <defs>
       <path d="M 3.125 0 
Q 3.609375 9.03125 6.859375 15.71875 
Q 10.109375 22.40625 19.53125 27.875 
L 28.90625 33.296875 
Q 35.203125 36.96875 37.75 39.546875 
Q 41.75 43.609375 41.75 48.828125 
Q 41.75 54.9375 38.078125 58.515625 
Q 34.421875 62.109375 28.328125 62.109375 
Q 19.28125 62.109375 15.828125 55.28125 
Q 13.96875 51.609375 13.765625 45.125 
L 4.828125 45.125 
Q 4.984375 54.25 8.203125 60.015625 
Q 13.921875 70.171875 28.375 70.171875 
Q 40.375 70.171875 45.921875 63.671875 
Q 51.46875 57.171875 51.46875 49.21875 
Q 51.46875 40.828125 45.5625 34.859375 
Q 42.140625 31.390625 33.296875 26.46875 
L 26.609375 22.75 
Q 21.828125 20.125 19.09375 17.71875 
Q 14.203125 13.484375 12.9375 8.296875 
L 51.125 8.296875 
L 51.125 0 
L 3.125 0 
z
" id="Helvetica-50"/>
      </defs>
      <g transform="translate(205.198125 328.930875)scale(0.2 -0.2)">
       <use xlink:href="#Helvetica-50"/>
       <use x="55.615234" xlink:href="#Helvetica-48"/>
      </g>
     </g>
    </g>
    <g id="xtick_6">
     <g id="line2d_6">
      <g>
       <use style="stroke:#000000;stroke-width:0.8;" x="256" xlink:href="#m4ef603065b" y="307.584"/>
      </g>
     </g>
     <g id="text_6">
      <!-- 25 -->
      <g transform="translate(244.878125 328.930875)scale(0.2 -0.2)">
       <use xlink:href="#Helvetica-50"/>
       <use x="55.615234" xlink:href="#Helvetica-53"/>
      </g>
     </g>
    </g>
    <g id="xtick_7">
     <g id="line2d_7">
      <g>
       <use style="stroke:#000000;stroke-width:0.8;" x="295.68" xlink:href="#m4ef603065b" y="307.584"/>
      </g>
     </g>
     <g id="text_7">
      <!-- 30 -->
      <defs>
       <path d="M 25.984375 -1.90625 
Q 13.578125 -1.90625 7.984375 4.90625 
Q 2.390625 11.71875 2.390625 21.484375 
L 11.578125 21.484375 
Q 12.15625 14.703125 14.109375 11.625 
Q 17.53125 6.109375 26.46875 6.109375 
Q 33.40625 6.109375 37.59375 9.8125 
Q 41.796875 13.53125 41.796875 19.390625 
Q 41.796875 26.609375 37.375 29.484375 
Q 32.953125 32.375 25.09375 32.375 
Q 24.21875 32.375 23.3125 32.34375 
Q 22.40625 32.328125 21.484375 32.28125 
L 21.484375 40.046875 
Q 22.859375 39.890625 23.78125 39.84375 
Q 24.703125 39.796875 25.78125 39.796875 
Q 30.71875 39.796875 33.890625 41.359375 
Q 39.453125 44.09375 39.453125 51.125 
Q 39.453125 56.34375 35.734375 59.171875 
Q 32.03125 62.015625 27.09375 62.015625 
Q 18.3125 62.015625 14.9375 56.15625 
Q 13.09375 52.9375 12.84375 46.96875 
L 4.15625 46.96875 
Q 4.15625 54.78125 7.28125 60.25 
Q 12.640625 70.015625 26.171875 70.015625 
Q 36.859375 70.015625 42.71875 65.25 
Q 48.578125 60.5 48.578125 51.46875 
Q 48.578125 45.015625 45.125 41.015625 
Q 42.96875 38.53125 39.546875 37.109375 
Q 45.0625 35.59375 48.15625 31.265625 
Q 51.265625 26.953125 51.265625 20.703125 
Q 51.265625 10.6875 44.671875 4.390625 
Q 38.09375 -1.90625 25.984375 -1.90625 
z
" id="Helvetica-51"/>
      </defs>
      <g transform="translate(284.558125 328.930875)scale(0.2 -0.2)">
       <use xlink:href="#Helvetica-51"/>
       <use x="55.615234" xlink:href="#Helvetica-48"/>
      </g>
     </g>
    </g>
    <g id="xtick_8">
     <g id="line2d_8">
      <g>
       <use style="stroke:#000000;stroke-width:0.8;" x="335.36" xlink:href="#m4ef603065b" y="307.584"/>
      </g>
     </g>
     <g id="text_8">
      <!-- 35 -->
      <g transform="translate(324.238125 328.930875)scale(0.2 -0.2)">
       <use xlink:href="#Helvetica-51"/>
       <use x="55.615234" xlink:href="#Helvetica-53"/>
      </g>
     </g>
    </g>
    <g id="xtick_9">
     <g id="line2d_9">
      <g>
       <use style="stroke:#000000;stroke-width:0.8;" x="375.04" xlink:href="#m4ef603065b" y="307.584"/>
      </g>
     </g>
     <g id="text_9">
      <!-- 40 -->
      <defs>
       <path d="M 33.0625 24.75 
L 33.0625 56.453125 
L 10.640625 24.75 
z
M 33.203125 0 
L 33.203125 17.09375 
L 2.546875 17.09375 
L 2.546875 25.6875 
L 34.578125 70.125 
L 42 70.125 
L 42 24.75 
L 52.296875 24.75 
L 52.296875 17.09375 
L 42 17.09375 
L 42 0 
z
" id="Helvetica-52"/>
      </defs>
      <g transform="translate(363.918125 328.930875)scale(0.2 -0.2)">
       <use xlink:href="#Helvetica-52"/>
       <use x="55.615234" xlink:href="#Helvetica-48"/>
      </g>
     </g>
    </g>
    <g id="xtick_10">
     <g id="line2d_10">
      <g>
       <use style="stroke:#000000;stroke-width:0.8;" x="414.72" xlink:href="#m4ef603065b" y="307.584"/>
      </g>
     </g>
     <g id="text_10">
      <!-- 45 -->
      <g transform="translate(403.598125 328.930875)scale(0.2 -0.2)">
       <use xlink:href="#Helvetica-52"/>
       <use x="55.615234" xlink:href="#Helvetica-53"/>
      </g>
     </g>
    </g>
    <g id="text_11">
     <!-- Distance (nm) -->
     <defs>
      <path d="M 35.15625 8.296875 
Q 40.09375 8.296875 43.265625 9.328125 
Q 48.921875 11.234375 52.546875 16.65625 
Q 55.421875 21 56.6875 27.78125 
Q 57.421875 31.84375 57.421875 35.296875 
Q 57.421875 48.640625 52.125 56 
Q 46.828125 63.375 35.0625 63.375 
L 17.828125 63.375 
L 17.828125 8.296875 
z
M 8.0625 71.734375 
L 37.109375 71.734375 
Q 51.90625 71.734375 60.0625 61.234375 
Q 67.328125 51.765625 67.328125 36.96875 
Q 67.328125 25.53125 63.03125 16.3125 
Q 55.46875 0 37.015625 0 
L 8.0625 0 
z
" id="Helvetica-68"/>
      <path d="M 6.453125 52.046875 
L 15.375 52.046875 
L 15.375 0 
L 6.453125 0 
z
M 6.453125 71.734375 
L 15.375 71.734375 
L 15.375 61.765625 
L 6.453125 61.765625 
z
" id="Helvetica-105"/>
      <path d="M 11.671875 16.40625 
Q 12.0625 12.015625 13.875 9.671875 
Q 17.1875 5.421875 25.390625 5.421875 
Q 30.28125 5.421875 33.984375 7.546875 
Q 37.703125 9.671875 37.703125 14.109375 
Q 37.703125 17.484375 34.71875 19.234375 
Q 32.8125 20.3125 27.203125 21.734375 
L 20.21875 23.484375 
Q 13.53125 25.140625 10.359375 27.203125 
Q 4.6875 30.765625 4.6875 37.0625 
Q 4.6875 44.484375 10.03125 49.0625 
Q 15.375 53.65625 24.421875 53.65625 
Q 36.234375 53.65625 41.453125 46.734375 
Q 44.734375 42.328125 44.625 37.25 
L 36.328125 37.25 
Q 36.078125 40.234375 34.234375 42.671875 
Q 31.203125 46.140625 23.734375 46.140625 
Q 18.75 46.140625 16.1875 44.234375 
Q 13.625 42.328125 13.625 39.203125 
Q 13.625 35.796875 17 33.734375 
Q 18.953125 32.515625 22.75 31.59375 
L 28.5625 30.171875 
Q 38.03125 27.875 41.265625 25.734375 
Q 46.390625 22.359375 46.390625 15.140625 
Q 46.390625 8.15625 41.09375 3.078125 
Q 35.796875 -2 24.953125 -2 
Q 13.28125 -2 8.421875 3.296875 
Q 3.5625 8.59375 3.21875 16.40625 
z
M 24.65625 53.5625 
z
" id="Helvetica-115"/>
      <path d="M 8.203125 66.890625 
L 17.09375 66.890625 
L 17.09375 52.296875 
L 25.4375 52.296875 
L 25.4375 45.125 
L 17.09375 45.125 
L 17.09375 10.984375 
Q 17.09375 8.25 18.953125 7.328125 
Q 19.96875 6.78125 22.359375 6.78125 
Q 23 6.78125 23.734375 6.8125 
Q 24.46875 6.84375 25.4375 6.9375 
L 25.4375 0 
Q 23.921875 -0.4375 22.28125 -0.625 
Q 20.65625 -0.828125 18.75 -0.828125 
Q 12.59375 -0.828125 10.390625 2.3125 
Q 8.203125 5.46875 8.203125 10.5 
L 8.203125 45.125 
L 1.125 45.125 
L 1.125 52.296875 
L 8.203125 52.296875 
z
" id="Helvetica-116"/>
      <path d="M 13.1875 13.921875 
Q 13.1875 10.109375 15.96875 7.90625 
Q 18.75 5.71875 22.5625 5.71875 
Q 27.203125 5.71875 31.546875 7.859375 
Q 38.875 11.421875 38.875 19.53125 
L 38.875 26.609375 
Q 37.25 25.59375 34.703125 24.90625 
Q 32.171875 24.21875 29.734375 23.921875 
L 24.421875 23.25 
Q 19.625 22.609375 17.234375 21.234375 
Q 13.1875 18.953125 13.1875 13.921875 
z
M 34.46875 31.6875 
Q 37.5 32.078125 38.53125 34.234375 
Q 39.109375 35.40625 39.109375 37.59375 
Q 39.109375 42.09375 35.90625 44.109375 
Q 32.71875 46.140625 26.765625 46.140625 
Q 19.875 46.140625 17 42.4375 
Q 15.375 40.375 14.890625 36.328125 
L 6.6875 36.328125 
Q 6.9375 46 12.96875 49.78125 
Q 19 53.5625 26.953125 53.5625 
Q 36.1875 53.5625 41.9375 50.046875 
Q 47.65625 46.53125 47.65625 39.109375 
L 47.65625 8.984375 
Q 47.65625 7.625 48.21875 6.78125 
Q 48.78125 5.953125 50.59375 5.953125 
Q 51.171875 5.953125 51.90625 6.03125 
Q 52.640625 6.109375 53.46875 6.25 
L 53.46875 -0.25 
Q 51.421875 -0.828125 50.34375 -0.96875 
Q 49.265625 -1.125 47.40625 -1.125 
Q 42.875 -1.125 40.828125 2.09375 
Q 39.75 3.8125 39.3125 6.9375 
Q 36.625 3.421875 31.59375 0.828125 
Q 26.5625 -1.765625 20.515625 -1.765625 
Q 13.234375 -1.765625 8.609375 2.65625 
Q 4 7.078125 4 13.71875 
Q 4 21 8.546875 25 
Q 13.09375 29 20.453125 29.9375 
z
M 27.203125 53.5625 
z
" id="Helvetica-97"/>
      <path d="M 6.453125 52.296875 
L 14.796875 52.296875 
L 14.796875 44.875 
Q 18.5 49.46875 22.65625 51.46875 
Q 26.8125 53.46875 31.890625 53.46875 
Q 43.015625 53.46875 46.921875 45.703125 
Q 49.078125 41.453125 49.078125 33.546875 
L 49.078125 0 
L 40.140625 0 
L 40.140625 32.953125 
Q 40.140625 37.75 38.71875 40.671875 
Q 36.375 45.5625 30.21875 45.5625 
Q 27.09375 45.5625 25.09375 44.921875 
Q 21.484375 43.84375 18.75 40.625 
Q 16.546875 38.03125 15.890625 35.265625 
Q 15.234375 32.515625 15.234375 27.390625 
L 15.234375 0 
L 6.453125 0 
z
M 27.09375 53.5625 
z
" id="Helvetica-110"/>
      <path d="M 26.609375 53.8125 
Q 35.453125 53.8125 40.984375 49.515625 
Q 46.53125 45.21875 47.65625 34.71875 
L 39.109375 34.71875 
Q 38.328125 39.546875 35.546875 42.75 
Q 32.765625 45.953125 26.609375 45.953125 
Q 18.21875 45.953125 14.59375 37.75 
Q 12.25 32.421875 12.25 24.609375 
Q 12.25 16.75 15.5625 11.375 
Q 18.890625 6 26.03125 6 
Q 31.5 6 34.6875 9.34375 
Q 37.890625 12.703125 39.109375 18.5 
L 47.65625 18.5 
Q 46.1875 8.109375 40.328125 3.296875 
Q 34.46875 -1.515625 25.34375 -1.515625 
Q 15.09375 -1.515625 8.984375 5.984375 
Q 2.875 13.484375 2.875 24.703125 
Q 2.875 38.484375 9.5625 46.140625 
Q 16.265625 53.8125 26.609375 53.8125 
z
M 25.25 53.5625 
z
" id="Helvetica-99"/>
      <path d="M 28.21875 53.46875 
Q 33.796875 53.46875 39.015625 50.859375 
Q 44.234375 48.25 46.96875 44.09375 
Q 49.609375 40.140625 50.484375 34.859375 
Q 51.265625 31.25 51.265625 23.34375 
L 12.9375 23.34375 
Q 13.1875 15.375 16.703125 10.5625 
Q 20.21875 5.765625 27.59375 5.765625 
Q 34.46875 5.765625 38.578125 10.296875 
Q 40.921875 12.9375 41.890625 16.40625 
L 50.53125 16.40625 
Q 50.203125 13.53125 48.265625 9.984375 
Q 46.34375 6.453125 43.953125 4.203125 
Q 39.9375 0.296875 34.03125 -1.078125 
Q 30.859375 -1.859375 26.859375 -1.859375 
Q 17.09375 -1.859375 10.296875 5.25 
Q 3.515625 12.359375 3.515625 25.140625 
Q 3.515625 37.75 10.34375 45.609375 
Q 17.1875 53.46875 28.21875 53.46875 
z
M 42.234375 30.328125 
Q 41.703125 36.03125 39.75 39.453125 
Q 36.140625 45.796875 27.6875 45.796875 
Q 21.625 45.796875 17.515625 41.421875 
Q 13.421875 37.0625 13.1875 30.328125 
z
M 27.390625 53.5625 
z
" id="Helvetica-101"/>
      <path id="Helvetica-32"/>
      <path d="M 29.59375 72.90625 
Q 21.921875 58.015625 19.625 50.984375 
Q 16.15625 40.28125 16.15625 26.265625 
Q 16.15625 12.109375 20.125 0.390625 
Q 22.5625 -6.84375 29.734375 -20.40625 
L 23.828125 -20.40625 
Q 16.703125 -9.28125 14.984375 -6.203125 
Q 13.28125 -3.125 11.28125 2.15625 
Q 8.546875 9.375 7.46875 17.578125 
Q 6.9375 21.828125 6.9375 25.6875 
Q 6.9375 40.140625 11.46875 51.421875 
Q 14.359375 58.59375 23.484375 72.90625 
z
" id="Helvetica-40"/>
      <path d="M 6.453125 52.296875 
L 15.140625 52.296875 
L 15.140625 44.875 
Q 18.265625 48.734375 20.796875 50.484375 
Q 25.140625 53.46875 30.671875 53.46875 
Q 36.921875 53.46875 40.71875 50.390625 
Q 42.875 48.640625 44.625 45.21875 
Q 47.5625 49.421875 51.515625 51.4375 
Q 55.46875 53.46875 60.40625 53.46875 
Q 70.953125 53.46875 74.75 45.84375 
Q 76.8125 41.75 76.8125 34.8125 
L 76.8125 0 
L 67.671875 0 
L 67.671875 36.328125 
Q 67.671875 41.546875 65.0625 43.5 
Q 62.453125 45.453125 58.6875 45.453125 
Q 53.515625 45.453125 49.78125 41.984375 
Q 46.046875 38.53125 46.046875 30.421875 
L 46.046875 0 
L 37.109375 0 
L 37.109375 34.125 
Q 37.109375 39.453125 35.84375 41.890625 
Q 33.84375 45.5625 28.375 45.5625 
Q 23.390625 45.5625 19.3125 41.703125 
Q 15.234375 37.84375 15.234375 27.734375 
L 15.234375 0 
L 6.453125 0 
z
" id="Helvetica-109"/>
      <path d="M 3.46875 -20.40625 
Q 11.234375 -5.28125 13.484375 1.65625 
Q 16.890625 12.15625 16.890625 26.265625 
Q 16.890625 40.375 12.9375 52.09375 
Q 10.5 59.328125 3.328125 72.90625 
L 9.234375 72.90625 
Q 16.75 60.890625 18.328125 58.078125 
Q 19.921875 55.28125 21.78125 50.34375 
Q 24.125 44.234375 25.125 38.28125 
Q 26.125 32.328125 26.125 26.8125 
Q 26.125 12.359375 21.53125 1.03125 
Q 18.65625 -6.25 9.578125 -20.40625 
z
" id="Helvetica-41"/>
     </defs>
     <g transform="translate(173.927188 351.593375)scale(0.2 -0.2)">
      <use xlink:href="#Helvetica-68"/>
      <use x="72.216797" xlink:href="#Helvetica-105"/>
      <use x="94.433594" xlink:href="#Helvetica-115"/>
      <use x="144.433594" xlink:href="#Helvetica-116"/>
      <use x="172.216797" xlink:href="#Helvetica-97"/>
      <use x="227.832031" xlink:href="#Helvetica-110"/>
      <use x="283.447266" xlink:href="#Helvetica-99"/>
      <use x="333.447266" xlink:href="#Helvetica-101"/>
      <use x="389.0625" xlink:href="#Helvetica-32"/>
      <use x="416.845703" xlink:href="#Helvetica-40"/>
      <use x="450.146484" xlink:href="#Helvetica-110"/>
      <use x="505.761719" xlink:href="#Helvetica-109"/>
      <use x="589.0625" xlink:href="#Helvetica-41"/>
     </g>
    </g>
   </g>
   <g id="matplotlib.axis_2">
    <g id="ytick_1">
     <g id="line2d_11">
      <defs>
       <path d="M 0 0 
L -3.5 0 
" id="md9b41eb736" style="stroke:#000000;stroke-width:0.8;"/>
      </defs>
      <g>
       <use style="stroke:#000000;stroke-width:0.8;" x="57.6" xlink:href="#md9b41eb736" y="282.383809"/>
      </g>
     </g>
     <g id="text_12">
      <!-- 25 -->
      <g transform="translate(28.35625 289.557246)scale(0.2 -0.2)">
       <use xlink:href="#Helvetica-50"/>
       <use x="55.615234" xlink:href="#Helvetica-53"/>
      </g>
     </g>
    </g>
    <g id="ytick_2">
     <g id="line2d_12">
      <g>
       <use style="stroke:#000000;stroke-width:0.8;" x="57.6" xlink:href="#md9b41eb736" y="247.717029"/>
      </g>
     </g>
     <g id="text_13">
      <!-- 50 -->
      <g transform="translate(28.35625 254.890466)scale(0.2 -0.2)">
       <use xlink:href="#Helvetica-53"/>
       <use x="55.615234" xlink:href="#Helvetica-48"/>
      </g>
     </g>
    </g>
    <g id="ytick_3">
     <g id="line2d_13">
      <g>
       <use style="stroke:#000000;stroke-width:0.8;" x="57.6" xlink:href="#md9b41eb736" y="213.050249"/>
      </g>
     </g>
     <g id="text_14">
      <!-- 75 -->
      <defs>
       <path d="M 52.296875 68.75 
L 52.296875 61.078125 
Q 48.921875 57.8125 43.328125 49.703125 
Q 37.75 41.609375 33.453125 32.234375 
Q 29.203125 23.09375 27 15.578125 
Q 25.59375 10.75 23.34375 0 
L 13.625 0 
Q 16.9375 20.015625 28.265625 39.84375 
Q 34.96875 51.46875 42.328125 59.90625 
L 3.65625 59.90625 
L 3.65625 68.75 
z
" id="Helvetica-55"/>
      </defs>
      <g transform="translate(28.35625 220.223687)scale(0.2 -0.2)">
       <use xlink:href="#Helvetica-55"/>
       <use x="55.615234" xlink:href="#Helvetica-53"/>
      </g>
     </g>
    </g>
    <g id="ytick_4">
     <g id="line2d_14">
      <g>
       <use style="stroke:#000000;stroke-width:0.8;" x="57.6" xlink:href="#md9b41eb736" y="178.383469"/>
      </g>
     </g>
     <g id="text_15">
      <!-- 100 -->
      <g transform="translate(17.234375 185.556907)scale(0.2 -0.2)">
       <use xlink:href="#Helvetica-49"/>
       <use x="55.615234" xlink:href="#Helvetica-48"/>
       <use x="111.230469" xlink:href="#Helvetica-48"/>
      </g>
     </g>
    </g>
    <g id="ytick_5">
     <g id="line2d_15">
      <g>
       <use style="stroke:#000000;stroke-width:0.8;" x="57.6" xlink:href="#md9b41eb736" y="143.71669"/>
      </g>
     </g>
     <g id="text_16">
      <!-- 125 -->
      <g transform="translate(17.234375 150.890127)scale(0.2 -0.2)">
       <use xlink:href="#Helvetica-49"/>
       <use x="55.615234" xlink:href="#Helvetica-50"/>
       <use x="111.230469" xlink:href="#Helvetica-53"/>
      </g>
     </g>
    </g>
    <g id="ytick_6">
     <g id="line2d_16">
      <g>
       <use style="stroke:#000000;stroke-width:0.8;" x="57.6" xlink:href="#md9b41eb736" y="109.04991"/>
      </g>
     </g>
     <g id="text_17">
      <!-- 150 -->
      <g transform="translate(17.234375 116.223347)scale(0.2 -0.2)">
       <use xlink:href="#Helvetica-49"/>
       <use x="55.615234" xlink:href="#Helvetica-53"/>
       <use x="111.230469" xlink:href="#Helvetica-48"/>
      </g>
     </g>
    </g>
    <g id="ytick_7">
     <g id="line2d_17">
      <g>
       <use style="stroke:#000000;stroke-width:0.8;" x="57.6" xlink:href="#md9b41eb736" y="74.38313"/>
      </g>
     </g>
     <g id="text_18">
      <!-- 175 -->
      <g transform="translate(17.234375 81.556567)scale(0.2 -0.2)">
       <use xlink:href="#Helvetica-49"/>
       <use x="55.615234" xlink:href="#Helvetica-55"/>
       <use x="111.230469" xlink:href="#Helvetica-53"/>
      </g>
     </g>
    </g>
    <g id="text_19">
     <!-- Intensity (a.u.) -->
     <defs>
      <path d="M 9.8125 71.734375 
L 19.625 71.734375 
L 19.625 0 
L 9.8125 0 
z
" id="Helvetica-73"/>
      <path d="M 39.109375 52.296875 
L 48.828125 52.296875 
Q 46.96875 47.265625 40.578125 29.34375 
Q 35.796875 15.875 32.5625 7.375 
Q 24.953125 -12.640625 21.828125 -17.03125 
Q 18.703125 -21.4375 11.078125 -21.4375 
Q 9.234375 -21.4375 8.234375 -21.28125 
Q 7.234375 -21.140625 5.765625 -20.75 
L 5.765625 -12.75 
Q 8.0625 -13.375 9.078125 -13.515625 
Q 10.109375 -13.671875 10.890625 -13.671875 
Q 13.328125 -13.671875 14.46875 -12.859375 
Q 15.625 -12.0625 16.40625 -10.890625 
Q 16.65625 -10.5 18.15625 -6.875 
Q 19.671875 -3.265625 20.359375 -1.515625 
L 1.03125 52.296875 
L 10.984375 52.296875 
L 25 9.71875 
z
M 24.953125 53.5625 
z
" id="Helvetica-121"/>
      <path d="M 8.546875 10.640625 
L 18.75 10.640625 
L 18.75 0 
L 8.546875 0 
z
" id="Helvetica-46"/>
      <path d="M 15.234375 52.296875 
L 15.234375 17.578125 
Q 15.234375 13.578125 16.5 11.03125 
Q 18.84375 6.34375 25.25 6.34375 
Q 34.421875 6.34375 37.75 14.546875 
Q 39.546875 18.953125 39.546875 26.609375 
L 39.546875 52.296875 
L 48.34375 52.296875 
L 48.34375 0 
L 40.046875 0 
L 40.140625 7.71875 
Q 38.421875 4.734375 35.890625 2.6875 
Q 30.859375 -1.421875 23.6875 -1.421875 
Q 12.5 -1.421875 8.453125 6.0625 
Q 6.25 10.0625 6.25 16.75 
L 6.25 52.296875 
z
M 27.296875 53.5625 
z
" id="Helvetica-117"/>
     </defs>
     <g transform="translate(8.946875 237.882688)rotate(-90)scale(0.2 -0.2)">
      <use xlink:href="#Helvetica-73"/>
      <use x="27.783203" xlink:href="#Helvetica-110"/>
      <use x="83.398438" xlink:href="#Helvetica-116"/>
      <use x="111.181641" xlink:href="#Helvetica-101"/>
      <use x="166.796875" xlink:href="#Helvetica-110"/>
      <use x="222.412109" xlink:href="#Helvetica-115"/>
      <use x="272.412109" xlink:href="#Helvetica-105"/>
      <use x="294.628906" xlink:href="#Helvetica-116"/>
      <use x="322.412109" xlink:href="#Helvetica-121"/>
      <use x="372.412109" xlink:href="#Helvetica-32"/>
      <use x="400.195312" xlink:href="#Helvetica-40"/>
      <use x="433.496094" xlink:href="#Helvetica-97"/>
      <use x="489.111328" xlink:href="#Helvetica-46"/>
      <use x="516.894531" xlink:href="#Helvetica-117"/>
      <use x="572.509766" xlink:href="#Helvetica-46"/>
      <use x="600.292969" xlink:href="#Helvetica-41"/>
     </g>
    </g>
   </g>
   <g id="line2d_18">
    <path clip-path="url(#pb1c3715327)" d="M 57.6 176.265537 
L 59.075302 177.54529 
L 60.549811 179.650887 
L 62.025114 179.799441 
L 63.500416 179.783952 
L 64.975718 179.412806 
L 66.450227 176.992684 
L 67.92553 177.1485 
L 70.876134 177.853448 
L 72.350643 178.692567 
L 73.825946 179.76078 
L 75.301248 178.179996 
L 76.77655 179.04503 
L 78.251059 178.783346 
L 79.726362 178.312709 
L 81.201664 177.546871 
L 82.676966 176.347915 
L 87.10208 172.234811 
L 90.051891 168.304628 
L 91.527194 166.042413 
L 93.002496 163.415978 
L 95.952307 157.0634 
L 98.902912 149.482706 
L 100.377421 145.903589 
L 106.277837 130.034445 
L 107.753139 126.734524 
L 109.228442 124.167993 
L 110.70295 122.112669 
L 112.178253 120.448307 
L 113.653555 119.92268 
L 115.128858 119.607866 
L 116.603366 119.705052 
L 118.078669 120.619621 
L 119.553971 121.723768 
L 121.029274 123.680004 
L 123.979085 129.543603 
L 125.454387 133.49411 
L 131.354803 151.42876 
L 135.779917 163.28163 
L 137.255219 168.049005 
L 138.729728 173.254133 
L 140.20503 179.349028 
L 144.630144 195.280137 
L 147.580749 203.796596 
L 149.056051 207.437004 
L 153.481165 216.229728 
L 154.956467 218.678312 
L 156.430976 220.858634 
L 157.906278 222.467886 
L 159.381581 222.901874 
L 160.856883 223.055518 
L 162.331392 222.157192 
L 163.806694 221.026144 
L 166.756506 217.329437 
L 168.231808 214.757083 
L 171.182413 210.328174 
L 172.656922 208.755689 
L 177.082829 202.13061 
L 180.03264 196.202788 
L 190.35817 172.250698 
L 193.308774 164.374366 
L 196.258586 156.069077 
L 197.733888 151.904151 
L 199.20919 148.103127 
L 200.683699 144.789418 
L 202.159002 142.37146 
L 203.634304 140.958125 
L 205.109606 139.270744 
L 206.584115 138.14037 
L 208.059418 136.318799 
L 211.010022 133.791927 
L 213.959834 130.836614 
L 215.435136 129.525932 
L 216.910438 128.620396 
L 218.384947 127.944295 
L 219.86025 127.68471 
L 221.335552 128.391477 
L 222.810061 129.238733 
L 224.285363 131.001945 
L 225.760666 133.432502 
L 228.710477 139.954017 
L 230.185779 143.818947 
L 234.610893 153.841172 
L 236.086195 156.746922 
L 237.561498 158.907514 
L 239.0368 160.606582 
L 240.511309 161.551064 
L 241.986611 162.666581 
L 243.461914 164.13158 
L 246.411725 165.430732 
L 247.887027 165.378078 
L 249.36233 165.561832 
L 252.312141 163.775126 
L 253.787443 162.459452 
L 255.262746 160.638793 
L 258.212557 157.547823 
L 261.163162 153.613877 
L 267.063578 142.770148 
L 268.538086 140.582258 
L 270.013389 138.077177 
L 271.488691 135.925103 
L 272.9632 134.020015 
L 274.438502 133.034726 
L 275.913805 132.288181 
L 277.389107 131.720954 
L 278.863616 131.683157 
L 280.338918 132.326731 
L 281.814221 133.098473 
L 283.289523 134.652575 
L 284.764032 136.404733 
L 286.239334 139.075818 
L 287.714637 142.379859 
L 289.189939 146.038215 
L 290.664448 150.127786 
L 293.615053 159.716815 
L 296.564864 171.561443 
L 305.415885 211.381172 
L 306.890394 216.796163 
L 308.365696 221.644758 
L 309.840998 225.751325 
L 311.316301 228.768603 
L 312.79081 230.393742 
L 314.266112 230.51878 
L 315.741414 230.033168 
L 317.216717 228.065996 
L 318.691226 225.007832 
L 320.166528 220.644532 
L 321.64183 215.325063 
L 324.591642 202.60398 
L 327.542246 187.410025 
L 330.492058 171.131377 
L 333.442662 154.076391 
L 336.392474 139.804217 
L 337.867776 134.522465 
L 339.343078 130.08175 
L 340.817587 126.100656 
L 343.768192 120.366256 
L 346.718003 115.95478 
L 348.193306 113.920889 
L 349.668608 112.584178 
L 352.618419 111.545641 
L 354.093722 111.55507 
L 355.569024 112.009542 
L 357.043533 111.821786 
L 358.518835 112.170277 
L 359.994138 112.904341 
L 361.46944 114.371954 
L 362.943949 116.477515 
L 364.419251 119.719631 
L 365.894554 123.617525 
L 367.369856 128.456611 
L 371.79497 145.080936 
L 376.220083 162.980801 
L 377.695386 169.13774 
L 379.169894 174.392313 
L 380.645197 179.137303 
L 382.120499 182.723829 
L 383.595802 184.928478 
L 385.07031 186.364673 
L 386.545613 187.105275 
L 388.020915 187.601822 
L 389.496218 187.307649 
L 390.970726 187.128254 
L 392.446029 186.326401 
L 393.921331 185.216708 
L 398.346445 180.367083 
L 399.821747 178.408746 
L 401.29705 176.921126 
L 402.771558 175.871891 
L 404.246861 176.124162 
L 405.722163 172.38551 
L 407.196672 167.697542 
L 408.671974 167.044802 
L 410.147277 167.456394 
L 411.622579 171.748137 
L 413.097088 169.442797 
L 414.57239 168.300618 
L 416.047693 167.523446 
L 417.522995 164.840994 
L 417.522995 164.840994 
" style="fill:none;stroke:#ffa500;stroke-linecap:square;"/>
   </g>
   <g id="line2d_19">
    <path clip-path="url(#pb1c3715327)" d="M 57.6 199.517921 
L 58.192026 200.938614 
L 58.784051 198.762713 
L 59.37687 197.322289 
L 59.968896 198.603347 
L 60.560922 203.88284 
L 61.152947 202.274543 
L 61.745766 202.750547 
L 62.337792 198.335262 
L 62.929818 198.462218 
L 63.521843 198.104424 
L 64.114662 198.444399 
L 64.706688 198.591394 
L 65.298714 198.598332 
L 67.66761 196.801117 
L 68.259635 196.046828 
L 68.852454 195.499201 
L 70.628531 193.027257 
L 71.22135 191.968771 
L 71.813376 190.644852 
L 72.405402 189.939655 
L 72.997427 188.991251 
L 74.182272 186.426207 
L 74.774298 183.916832 
L 75.366323 182.896587 
L 75.959142 181.551994 
L 76.551168 180.585565 
L 77.143194 179.377875 
L 77.735219 178.600832 
L 78.328038 177.568795 
L 79.51209 174.979072 
L 81.28896 172.109227 
L 81.880986 170.539233 
L 84.249882 166.146603 
L 84.841907 165.204212 
L 85.434726 164.024432 
L 86.026752 162.397264 
L 87.210803 160.909284 
L 87.803622 160.150728 
L 88.395648 158.960945 
L 88.987674 158.307277 
L 90.764544 155.319685 
L 91.35657 154.454607 
L 94.317491 146.980115 
L 94.91031 145.098149 
L 96.686387 140.762396 
L 97.279206 138.677192 
L 97.871232 137.59774 
L 98.463258 136.006889 
L 99.055283 134.829543 
L 100.832154 130.382268 
L 101.424179 129.342839 
L 102.016998 127.954733 
L 104.385894 124.021182 
L 104.97792 122.978592 
L 105.569946 122.26326 
L 106.161971 121.319368 
L 109.715712 118.41115 
L 110.307738 117.957312 
L 110.899763 117.353938 
L 111.492582 117.61313 
L 112.084608 117.196507 
L 112.676634 117.317985 
L 113.268659 117.285254 
L 113.861478 117.554369 
L 114.453504 117.607416 
L 116.8224 119.285681 
L 117.414426 120.205101 
L 118.006451 120.718695 
L 118.59927 121.479581 
L 119.191296 121.915369 
L 119.783322 123.006593 
L 120.375347 123.107356 
L 122.744243 126.417584 
L 123.337062 126.875577 
L 123.929088 127.473596 
L 124.521114 128.293444 
L 125.113139 128.696855 
L 125.705958 129.775456 
L 126.89001 131.212047 
L 128.074854 134.487384 
L 130.442957 141.642641 
L 131.627802 146.207337 
L 141.103386 187.290446 
L 143.472282 198.16671 
L 144.656333 203.903302 
L 145.249152 205.968051 
L 145.841178 208.499347 
L 148.210074 214.945413 
L 148.802099 216.144615 
L 149.986944 217.798627 
L 151.170995 218.829703 
L 151.763021 219.070434 
L 152.35584 219.552063 
L 152.947866 219.663423 
L 153.539891 219.569086 
L 154.131917 219.619102 
L 154.724736 219.376999 
L 155.908787 218.582651 
L 156.500813 217.460246 
L 157.093632 216.655967 
L 157.685658 215.612913 
L 158.277683 215.034475 
L 158.869709 213.605085 
L 159.462528 212.820009 
L 160.054554 211.576294 
L 160.646579 210.628165 
L 161.238605 209.374987 
L 161.831424 208.598121 
L 162.42345 207.312151 
L 163.015475 206.352087 
L 163.607501 205.892338 
L 167.753267 197.669598 
L 168.345293 196.453258 
L 168.938112 194.898561 
L 170.122163 190.744342 
L 170.714189 189.037599 
L 171.899034 185.124441 
L 174.26793 178.238591 
L 174.859955 177.089131 
L 176.636826 171.770191 
L 181.374618 160.47222 
L 182.558669 156.868687 
L 184.335539 152.310847 
L 184.927565 150.458116 
L 185.520384 149.192869 
L 186.11241 147.38224 
L 186.704435 146.083192 
L 187.296461 143.589723 
L 189.665357 136.333201 
L 190.258176 134.487001 
L 190.850202 133.307967 
L 192.034253 129.234425 
L 192.627072 127.375582 
L 193.811123 124.479443 
L 194.403149 122.977367 
L 194.995968 121.832756 
L 195.587994 121.291768 
L 196.180019 120.275883 
L 196.772045 119.740126 
L 197.364864 118.964547 
L 197.95689 118.592163 
L 199.140941 118.320677 
L 199.732966 117.879333 
L 200.325786 118.526617 
L 200.917811 118.721301 
L 201.509837 118.606087 
L 204.470758 121.324785 
L 206.247629 123.822811 
L 207.432474 126.676547 
L 208.024499 127.55059 
L 209.80137 132.213688 
L 210.393395 134.000653 
L 211.577446 137.126492 
L 215.723213 150.725064 
L 219.276954 163.136996 
L 220.461005 166.790042 
L 221.05303 168.9494 
L 222.237875 172.548261 
L 224.014746 178.554365 
L 224.606771 180.313046 
L 225.790822 182.960072 
L 226.975667 185.630462 
L 227.567693 187.043518 
L 228.752538 188.698854 
L 230.528614 189.901399 
L 231.121434 189.855735 
L 231.713459 189.055597 
L 233.49033 187.116155 
L 234.082355 186.001635 
L 235.859226 183.340475 
L 236.451251 181.648396 
L 239.412173 175.342475 
L 240.004198 173.751792 
L 240.597018 172.478306 
L 241.189043 170.907877 
L 242.965914 167.218514 
L 243.557939 165.48134 
L 244.149965 164.186189 
L 245.33481 161.001498 
L 248.295731 154.993061 
L 248.887757 154.555643 
L 250.072602 152.200717 
L 253.033523 147.617922 
L 253.625549 147.364185 
L 254.217574 146.572089 
L 254.810394 146.124467 
L 255.402419 146.087357 
L 255.994445 145.921736 
L 257.17929 145.935359 
L 258.955366 146.009526 
L 259.548186 145.749095 
L 260.140211 145.805987 
L 261.324262 146.681187 
L 261.917082 147.226617 
L 263.101133 147.781836 
L 263.693158 147.825358 
L 264.285978 148.050329 
L 265.470029 149.13767 
L 266.062054 149.449475 
L 267.838925 150.891962 
L 268.43095 151.917386 
L 269.615795 153.102249 
L 270.207821 153.171363 
L 272.576717 156.74054 
L 273.760768 158.009822 
L 274.353587 159.215399 
L 275.537638 160.647122 
L 276.722483 162.832779 
L 277.314509 163.510077 
L 277.906534 164.573687 
L 279.091379 165.982349 
L 279.683405 166.641539 
L 280.27543 167.886407 
L 281.460275 168.786897 
L 283.829171 172.089641 
L 284.421197 172.583712 
L 285.013222 173.323564 
L 285.605248 174.372499 
L 287.974144 177.465015 
L 291.527885 183.489393 
L 292.11991 185.082201 
L 292.711936 186.213624 
L 294.488806 190.855821 
L 296.265677 196.027823 
L 296.857702 197.597338 
L 306.333286 230.354375 
L 307.518131 233.491576 
L 308.702182 235.371127 
L 309.294208 236.481655 
L 309.887027 237.24353 
L 310.479053 237.235573 
L 311.071078 237.435469 
L 311.663104 237.864008 
L 313.439974 237.697722 
L 314.032 236.870052 
L 314.624819 236.297773 
L 315.216845 235.569823 
L 317.585741 230.886943 
L 318.177766 229.350163 
L 321.138688 218.900299 
L 323.507584 207.599618 
L 327.061325 191.36636 
L 328.245376 186.231072 
L 330.614272 175.91037 
L 331.207091 173.428951 
L 331.799117 171.560703 
L 334.168013 162.705554 
L 336.536909 155.172521 
L 338.905805 149.24661 
L 339.49783 148.437129 
L 340.089856 147.337757 
L 340.681882 145.960041 
L 341.274701 145.162863 
L 342.458752 143.125341 
L 343.050778 142.391735 
L 344.235622 140.464898 
L 344.827648 139.886139 
L 346.012493 137.925807 
L 346.604518 136.955376 
L 347.78857 134.518058 
L 348.381389 133.888767 
L 350.750285 129.939117 
L 351.934336 128.183338 
L 353.119181 127.539004 
L 354.303232 125.831629 
L 355.488077 124.882056 
L 356.080102 124.044736 
L 356.672128 124.026102 
L 357.264154 123.646092 
L 357.856973 123.087335 
L 360.225869 122.113084 
L 360.817894 122.060711 
L 362.001946 121.506707 
L 362.594765 121.593393 
L 363.18679 121.320329 
L 363.778816 121.858745 
L 364.963661 121.862967 
L 365.555686 122.410028 
L 366.147712 122.349813 
L 366.739738 122.433979 
L 367.332557 123.20163 
L 367.924582 123.41895 
L 368.516608 123.767976 
L 370.293478 125.8406 
L 370.885504 126.284736 
L 371.47753 127.570123 
L 372.070349 128.120225 
L 374.439245 131.797012 
L 375.03127 133.382676 
L 376.215322 135.323049 
L 376.808141 136.978347 
L 377.400166 138.155493 
L 377.992192 139.66947 
L 378.584218 141.669867 
L 379.177037 143.136282 
L 382.137958 151.853011 
L 383.32201 155.412745 
L 384.506854 159.056118 
L 385.09888 160.498012 
L 385.690906 164.28292 
L 386.283725 165.779599 
L 386.87575 168.164776 
L 387.467776 169.913219 
L 388.652621 172.481283 
L 389.836672 175.819329 
L 391.021517 177.380021 
L 391.613542 178.932788 
L 393.390413 182.081156 
L 393.982438 187.049597 
L 394.574464 188.082799 
L 395.16649 188.764273 
L 395.759309 188.02156 
L 396.351334 188.719049 
L 396.94336 188.976396 
L 397.535386 192.210779 
L 398.128205 192.18014 
L 398.72023 188.982213 
L 399.312256 185.11206 
L 399.904282 189.373445 
L 400.497101 189.029377 
L 401.681152 189.022097 
L 402.273178 189.180438 
L 402.865997 189.080546 
L 403.458022 190.263359 
L 404.050048 190.668637 
L 404.642074 190.577116 
L 405.234099 190.302648 
L 405.826918 190.686293 
L 405.826918 190.686293 
" style="fill:none;stroke:#ffa500;stroke-linecap:square;"/>
   </g>
   <g id="line2d_20">
    <path clip-path="url(#pb1c3715327)" d="M 57.6 203.424033 
L 58.188851 197.844226 
L 58.777702 196.562569 
L 59.366554 194.86091 
L 59.955405 194.109441 
L 60.54505 191.544846 
L 61.133901 190.531189 
L 61.722752 190.005267 
L 62.900454 187.009364 
L 63.489306 184.701837 
L 64.078157 179.063863 
L 65.255859 177.012514 
L 66.434355 174.402901 
L 67.023206 173.372605 
L 67.612058 169.029382 
L 68.78976 167.417525 
L 69.378611 165.470738 
L 69.967462 165.04394 
L 70.557107 164.82341 
L 71.145958 164.086642 
L 71.73481 162.772969 
L 72.323661 162.23707 
L 72.912512 162.510987 
L 73.501363 161.825179 
L 74.679066 161.371688 
L 75.267917 160.838216 
L 77.035264 161.378621 
L 77.624115 160.73793 
L 78.212966 160.680482 
L 78.801818 160.452523 
L 79.390669 160.02632 
L 79.97952 160.767397 
L 80.568371 161.117184 
L 81.158016 160.723023 
L 82.335718 160.795675 
L 82.92457 160.558257 
L 84.102272 159.549949 
L 84.691123 158.844727 
L 85.279974 158.83304 
L 86.45847 157.287793 
L 87.047322 156.86055 
L 87.636173 156.225256 
L 89.991578 152.757538 
L 90.580429 151.867394 
L 91.170074 150.700907 
L 92.347776 149.381539 
L 93.525478 146.474927 
L 94.703181 145.464291 
L 97.64823 138.890331 
L 98.237082 138.245034 
L 99.414784 134.8102 
L 100.003635 133.320618 
L 100.592486 132.147939 
L 101.182131 130.176043 
L 102.359834 125.616124 
L 108.83799 103.140264 
L 110.015693 100.399954 
L 112.371891 93.836542 
L 112.960742 92.548027 
L 113.549594 91.794471 
L 114.727296 87.933235 
L 116.494643 85.923998 
L 117.672346 83.53719 
L 118.261197 83.171654 
L 118.850048 82.483172 
L 119.438899 82.9432 
L 120.616602 82.287304 
L 121.205453 81.817817 
L 122.383949 83.891683 
L 122.9728 84.845317 
L 123.561651 85.163954 
L 124.150502 85.866105 
L 124.739354 88.135689 
L 125.917056 91.586916 
L 126.505907 92.800748 
L 127.684403 97.107105 
L 128.862106 100.218696 
L 130.039808 104.442794 
L 131.21751 109.015144 
L 132.396006 112.955816 
L 132.984858 115.520514 
L 133.573709 117.491716 
L 134.751411 122.116611 
L 135.929114 126.361063 
L 136.517965 129.624247 
L 137.10761 131.492787 
L 137.696461 134.145984 
L 138.285312 137.529462 
L 138.874163 140.248873 
L 139.463014 143.67088 
L 140.051866 145.814674 
L 141.229568 152.292706 
L 141.818419 155.322484 
L 142.408064 157.549725 
L 143.585766 163.535341 
L 144.763469 168.848273 
L 145.941171 174.57879 
L 148.29737 186.532044 
L 148.886221 190.384712 
L 149.475072 193.279141 
L 153.008973 214.791462 
L 154.186675 221.005334 
L 155.364378 226.568362 
L 155.953229 229.888102 
L 158.309427 238.642058 
L 162.431386 248.958496 
L 163.02103 250.055848 
L 164.198733 253.537829 
L 164.787584 254.050848 
L 165.376435 255.239373 
L 165.965286 255.276368 
L 166.554138 255.800183 
L 168.321485 256.55166 
L 168.910336 255.572472 
L 169.499187 255.186432 
L 170.088038 254.960999 
L 171.265741 252.392785 
L 171.854592 251.345452 
L 175.388493 240.410559 
L 176.566195 235.764617 
L 177.155046 232.933084 
L 177.743898 230.670581 
L 178.922394 225.111317 
L 179.511245 223.517239 
L 180.688947 218.402602 
L 181.277798 216.385441 
L 182.455501 209.652508 
L 183.633997 204.321104 
L 184.222848 201.006762 
L 185.989402 189.487288 
L 187.755955 177.578507 
L 188.934451 168.878135 
L 189.523302 165.600639 
L 190.112154 161.399966 
L 191.289856 155.254834 
L 191.878707 151.617992 
L 193.05641 146.002023 
L 193.646054 144.117091 
L 194.234906 142.617604 
L 194.823757 140.351338 
L 196.59031 135.881205 
L 197.179162 135.195397 
L 197.768013 134.07878 
L 198.356864 133.261684 
L 199.53536 133.255196 
L 200.124211 133.453391 
L 200.713062 133.372717 
L 201.301914 133.967103 
L 201.890765 135.174399 
L 202.479616 136.642289 
L 203.068467 137.08642 
L 203.658112 138.601854 
L 204.246963 140.560032 
L 204.835814 142.084924 
L 205.424666 144.242486 
L 206.602368 149.094349 
L 207.78007 153.506984 
L 209.547418 161.618417 
L 211.313971 171.736015 
L 213.080525 181.176572 
L 213.669376 185.654777 
L 214.259021 188.880224 
L 215.436723 196.62295 
L 216.025574 199.838145 
L 219.559475 222.984262 
L 220.148326 226.461885 
L 221.326029 235.505656 
L 224.271078 257.064431 
L 226.037632 268.3191 
L 226.626483 270.823676 
L 227.215334 274.707147 
L 228.393037 280.698855 
L 229.571533 285.417152 
L 230.749235 289.087571 
L 231.338086 290.127823 
L 232.515789 292.961237 
L 233.10464 293.797747 
L 233.693491 294.156598 
L 234.283136 295.015096 
L 234.871987 295.488 
L 235.460838 295.459227 
L 236.04969 294.732165 
L 237.227392 294.504404 
L 238.405094 292.113684 
L 239.58359 288.097934 
L 240.172442 286.216172 
L 241.350144 280.147653 
L 243.116698 271.26959 
L 244.884045 258.81436 
L 245.472896 255.410528 
L 251.362202 207.328893 
L 253.128755 194.901992 
L 253.717606 191.385245 
L 254.896102 183.158422 
L 256.073805 175.603887 
L 257.251507 167.515285 
L 258.42921 159.50508 
L 259.606912 150.890385 
L 261.96311 134.584568 
L 263.140813 126.440797 
L 263.729664 123.18108 
L 264.907366 115.416216 
L 265.497011 112.804322 
L 266.085862 109.280989 
L 269.61897 92.312788 
L 271.386317 85.94876 
L 271.975168 84.375928 
L 272.564019 83.235936 
L 273.15287 80.960012 
L 273.741722 80.454521 
L 274.330573 79.349344 
L 274.919424 77.913199 
L 275.509069 78.460785 
L 276.09792 78.130956 
L 276.686771 78.205093 
L 277.275622 79.233904 
L 277.864474 79.389954 
L 278.453325 80.500579 
L 279.631027 83.145951 
L 280.219878 84.138411 
L 281.987226 89.988629 
L 285.521126 104.402382 
L 286.698829 109.875326 
L 287.876531 113.749883 
L 288.465382 117.512962 
L 289.054234 119.878227 
L 292.588134 137.258021 
L 293.176986 140.657792 
L 293.765837 142.77514 
L 294.354688 146.93139 
L 294.943539 149.657932 
L 297.888589 167.487998 
L 298.47744 170.182696 
L 299.655142 177.055732 
L 302.600192 192.498742 
L 303.189043 195.312942 
L 303.777894 196.981999 
L 304.955597 203.268522 
L 307.311795 211.351478 
L 308.489498 215.238268 
L 310.256051 219.308296 
L 310.844902 219.996333 
L 311.434547 220.944865 
L 312.023398 221.254935 
L 312.61225 221.150984 
L 313.789952 219.67512 
L 314.967654 217.219821 
L 316.735002 211.478061 
L 318.501555 202.825679 
L 319.090406 199.129209 
L 319.679258 196.546336 
L 321.446605 186.223114 
L 323.213158 175.897366 
L 324.390861 169.353912 
L 324.979712 164.847924 
L 327.33591 151.301484 
L 327.924762 147.07387 
L 329.102464 139.738429 
L 330.869018 129.044371 
L 333.814067 112.717506 
L 334.402918 109.879733 
L 334.99177 106.477684 
L 336.169472 101.338582 
L 337.347968 96.888358 
L 338.52567 93.871456 
L 339.703373 89.870811 
L 340.292224 89.33516 
L 340.881075 87.721025 
L 341.469926 86.825681 
L 342.059571 86.44296 
L 342.648422 85.269341 
L 343.237274 84.414656 
L 343.826125 84.106171 
L 344.414976 83.488013 
L 345.003827 83.190671 
L 345.592678 83.303635 
L 346.18153 83.732166 
L 346.770381 84.547925 
L 347.948877 85.695742 
L 349.71543 89.995413 
L 350.304282 90.567811 
L 352.071629 95.673683 
L 352.66048 97.949508 
L 353.249331 99.538336 
L 353.838182 101.783406 
L 354.427034 103.161014 
L 355.015885 105.215912 
L 355.604736 106.253539 
L 356.782438 109.993094 
L 357.372083 111.195635 
L 357.960934 111.469354 
L 358.549786 112.928974 
L 359.138637 113.982052 
L 359.727488 115.513828 
L 360.316339 116.505694 
L 361.494042 119.007001 
L 362.082893 119.496348 
L 363.261389 122.707779 
L 363.85024 123.204405 
L 364.439091 124.470387 
L 365.027942 125.464481 
L 365.616794 127.285973 
L 366.205645 128.546507 
L 366.794496 130.190851 
L 367.384141 131.351941 
L 369.150694 135.897399 
L 369.739546 138.120085 
L 370.328397 139.29826 
L 370.917248 141.342907 
L 372.09495 143.856298 
L 373.273446 147.853278 
L 373.862298 149.445474 
L 374.451149 151.885272 
L 375.628851 155.891861 
L 377.395405 163.298072 
L 378.573901 168.537411 
L 380.929306 175.755926 
L 381.518157 177.350696 
L 382.107008 178.348456 
L 383.874355 183.420899 
L 384.463206 183.899548 
L 387.407462 188.098785 
L 387.997107 188.930639 
L 388.585958 189.962719 
L 389.763661 191.569078 
L 390.941363 194.126347 
L 391.530214 194.806856 
L 392.119066 196.376419 
L 393.297562 198.75565 
L 393.886413 203.422334 
L 394.475264 205.029178 
L 395.652966 206.97704 
L 396.241818 207.907086 
L 396.830669 209.279274 
L 397.41952 210.110917 
L 399.186867 213.545599 
L 399.775718 215.043204 
L 400.36457 224.95937 
L 400.953421 226.268332 
L 401.542272 227.295356 
L 402.131123 231.804919 
L 402.719974 230.731513 
L 403.309619 231.518358 
L 403.89847 230.779345 
L 404.487322 229.088072 
L 405.076173 229.561828 
L 405.665024 228.683653 
L 406.253875 228.777582 
L 406.842726 227.309543 
L 407.431578 224.51076 
L 408.020429 223.538683 
L 408.610074 220.77826 
L 408.610074 220.77826 
" style="fill:none;stroke:#ffa500;stroke-linecap:square;"/>
   </g>
   <g id="line2d_21">
    <path clip-path="url(#pb1c3715327)" d="M 57.6 221.679227 
L 58.592 217.735534 
L 59.584 228.918674 
L 60.576 231.86193 
L 61.568 229.785891 
L 62.56 222.241019 
L 63.552 218.439669 
L 64.544 216.726314 
L 65.536 214.100285 
L 66.528 211.910242 
L 68.512 209.656738 
L 69.504 206.875171 
L 70.496 206.196858 
L 71.488 206.609745 
L 72.48 204.913117 
L 73.472 200.270965 
L 74.464 197.365958 
L 75.456 195.338298 
L 77.44 187.52117 
L 79.424 178.317701 
L 81.408 167.751135 
L 82.4 163.127247 
L 83.392 157.400691 
L 87.36 137.437182 
L 89.344 129.464021 
L 92.32 117.205385 
L 96.288 103.168311 
L 97.28 100.913319 
L 98.272 98.144071 
L 99.264 96.165291 
L 103.232 90.999677 
L 105.216 92.554003 
L 106.208 92.351351 
L 108.192 94.244355 
L 109.184 95.817237 
L 110.176 98.052353 
L 111.168 99.586275 
L 114.144 109.303803 
L 120.096 132.539129 
L 126.048 159.459832 
L 128.032 170.06747 
L 130.016 179.468573 
L 132.992 190.942286 
L 133.984 193.54104 
L 134.976 196.70965 
L 135.968 199.381633 
L 137.952 202.815559 
L 138.944 205.463309 
L 140.928 208.746682 
L 141.92 208.96221 
L 142.912 210.562693 
L 143.904 212.389467 
L 144.896 213.927352 
L 145.888 215.228577 
L 147.872 218.545231 
L 148.864 219.805055 
L 149.856 220.694901 
L 150.848 221.380379 
L 151.84 222.528147 
L 152.832 221.482597 
L 153.824 221.28252 
L 154.816 220.950115 
L 155.808 220.24661 
L 156.8 219.379743 
L 157.792 219.09224 
L 158.784 218.504951 
L 160.768 215.929639 
L 163.744 209.30353 
L 165.728 204.591951 
L 166.72 201.334264 
L 167.712 198.547385 
L 168.704 196.13603 
L 169.696 193.195231 
L 170.688 190.679545 
L 171.68 187.146835 
L 172.672 184.916077 
L 173.664 180.925964 
L 174.656 177.697265 
L 175.648 174.003569 
L 177.632 167.95623 
L 178.624 165.547979 
L 180.608 158.542384 
L 181.6 156.984558 
L 182.592 155.014296 
L 183.584 151.709 
L 184.576 148.811386 
L 185.568 148.426683 
L 186.56 146.919768 
L 187.552 146.538301 
L 188.544 146.379494 
L 189.536 145.626598 
L 190.528 145.463697 
L 192.512 147.063321 
L 193.504 148.39413 
L 194.496 150.445148 
L 195.488 151.648119 
L 196.48 153.466177 
L 197.472 156.053309 
L 198.464 158.139919 
L 199.456 159.59216 
L 200.448 163.313523 
L 201.44 165.764563 
L 202.432 168.870113 
L 203.424 172.544593 
L 204.416 175.785046 
L 205.408 179.48759 
L 206.4 182.35133 
L 207.392 185.816093 
L 208.384 190.559103 
L 209.376 192.641223 
L 210.368 195.138023 
L 211.36 198.101009 
L 213.344 202.038957 
L 214.336 202.896184 
L 215.328 204.591819 
L 216.32 204.559001 
L 217.312 204.29144 
L 218.304 204.421523 
L 220.288 202.588211 
L 221.28 200.161933 
L 223.264 198.793817 
L 224.256 196.953506 
L 225.248 195.417668 
L 227.232 191.34277 
L 228.224 190.100115 
L 229.216 189.345567 
L 231.2 186.783329 
L 232.192 184.996834 
L 233.184 183.699769 
L 234.176 182.096513 
L 235.168 181.192997 
L 236.16 180.126053 
L 237.152 179.844559 
L 240.128 177.022617 
L 241.12 176.796259 
L 242.112 175.864614 
L 243.104 175.541256 
L 244.096 174.677558 
L 246.08 173.422092 
L 247.072 171.238679 
L 250.048 167.405392 
L 252.032 164.492524 
L 254.016 161.6999 
L 255.008 161.67943 
L 256 160.71741 
L 256.992 160.12583 
L 257.984 160.77433 
L 258.976 159.707253 
L 259.968 160.913922 
L 260.96 161.790958 
L 261.952 162.348532 
L 262.944 164.316879 
L 264.928 166.714961 
L 266.912 170.745222 
L 267.904 172.626737 
L 268.896 173.123561 
L 269.888 175.211162 
L 270.88 176.560261 
L 271.872 178.582093 
L 272.864 181.23506 
L 273.856 182.6249 
L 274.848 186.200795 
L 275.84 188.97876 
L 278.816 199.44958 
L 280.8 207.124739 
L 283.776 220.027979 
L 285.76 226.063894 
L 287.744 231.482609 
L 289.728 233.120796 
L 290.72 232.682013 
L 291.712 231.263515 
L 292.704 229.578643 
L 294.688 223.729136 
L 295.68 220.004537 
L 297.664 211.130964 
L 298.656 205.13031 
L 302.624 186.444519 
L 303.616 180.839726 
L 307.584 163.988832 
L 308.576 160.86869 
L 309.568 157.172683 
L 310.56 152.996821 
L 312.544 145.483969 
L 313.536 141.194929 
L 314.528 138.033715 
L 317.504 127.192587 
L 321.472 113.969951 
L 323.456 109.449733 
L 324.448 107.580104 
L 325.44 106.426922 
L 326.432 105.983782 
L 327.424 106.513688 
L 328.416 106.431941 
L 330.4 108.543511 
L 331.392 109.957519 
L 332.384 110.985901 
L 333.376 112.895611 
L 334.368 114.511347 
L 336.352 119.467574 
L 337.344 122.457898 
L 338.336 126.046933 
L 339.328 129.109099 
L 341.312 137.373791 
L 343.296 144.502734 
L 346.272 157.197048 
L 348.256 164.128225 
L 350.24 171.935052 
L 353.216 185.90966 
L 354.208 190.934164 
L 355.2 194.129055 
L 356.192 198.374514 
L 358.176 202.987837 
L 359.168 204.468207 
L 360.16 205.667546 
L 361.152 205.803571 
L 362.144 206.732575 
L 363.136 205.839361 
L 364.128 205.2666 
L 365.12 204.54388 
L 366.112 202.75996 
L 367.104 201.787111 
L 368.096 199.711397 
L 369.088 197.169496 
L 373.056 192.369897 
L 374.048 190.678687 
L 375.04 190.266119 
L 376.032 189.571859 
L 377.024 187.205736 
L 378.016 186.845795 
L 379.008 186.088805 
L 380 184.105073 
L 380.992 184.131845 
L 381.984 182.952482 
L 382.976 182.521365 
L 383.968 181.18302 
L 384.96 180.246531 
L 385.952 179.510486 
L 386.944 179.617884 
L 387.936 177.075068 
L 388.928 177.034932 
L 389.92 183.519613 
L 390.912 184.368949 
L 391.904 184.838424 
L 392.896 185.620766 
L 393.888 183.613346 
L 394.88 183.514985 
L 396.864 185.554963 
L 397.856 185.143676 
L 398.848 185.830541 
L 399.84 195.497232 
L 400.832 195.681872 
L 400.832 195.681872 
" style="fill:none;stroke:#ffa500;stroke-linecap:square;"/>
   </g>
   <g id="line2d_22">
    <path clip-path="url(#pb1c3715327)" d="M 57.6 166.640989 
L 58.335667 165.682056 
L 59.072128 165.515606 
L 59.807795 165.184942 
L 60.543462 164.505138 
L 61.279923 163.650757 
L 62.01559 163.718513 
L 62.751258 163.459205 
L 63.487718 164.044811 
L 64.223386 163.598399 
L 64.959846 163.417797 
L 65.695514 164.274425 
L 66.431181 163.891417 
L 67.167642 164.293503 
L 67.903309 165.133635 
L 69.375437 165.854369 
L 70.111104 166.871134 
L 70.846771 167.412462 
L 71.583232 167.553567 
L 72.318899 168.180343 
L 73.054566 169.080675 
L 73.791027 169.519963 
L 74.526694 170.641923 
L 75.263155 171.493722 
L 75.998822 171.979152 
L 76.73449 173.129085 
L 77.47095 173.36305 
L 78.206618 173.980215 
L 78.942285 173.451988 
L 79.678746 173.928716 
L 81.15008 173.864738 
L 82.622208 173.383611 
L 83.357875 173.178336 
L 84.094336 172.361061 
L 85.566464 171.052952 
L 87.037798 168.905285 
L 90.717722 162.507614 
L 91.453389 160.921932 
L 92.925517 158.518018 
L 94.397645 155.321549 
L 95.869773 151.660546 
L 98.077568 143.205869 
L 103.228826 119.680275 
L 105.436621 110.762927 
L 106.908749 104.617822 
L 107.644416 101.598321 
L 111.324339 82.743418 
L 112.060006 78.801351 
L 115.004262 65.959437 
L 115.73993 63.405858 
L 118.684186 56.572104 
L 120.15552 55.296318 
L 121.627648 53.568 
L 122.363315 53.619689 
L 123.099776 53.879523 
L 123.835443 53.965401 
L 124.57111 54.489849 
L 125.307571 54.417456 
L 126.779699 57.120413 
L 129.723162 63.348861 
L 132.666624 72.807489 
L 134.138752 78.664501 
L 134.874419 81.345989 
L 137.083008 90.889777 
L 140.762138 103.279158 
L 142.234266 108.311388 
L 142.969933 111.017979 
L 143.706394 113.19051 
L 144.442061 116.277575 
L 145.914189 124.497044 
L 146.649856 127.448024 
L 150.329779 147.600421 
L 151.065446 150.624751 
L 151.801907 154.317121 
L 155.481037 169.237656 
L 156.217498 172.791407 
L 156.953165 175.768016 
L 158.425293 183.208368 
L 159.16096 186.994363 
L 159.897421 189.783532 
L 162.105216 200.254286 
L 164.313011 206.66678 
L 165.048678 208.967459 
L 166.520806 210.233059 
L 167.256474 210.841664 
L 167.992934 210.741298 
L 168.728602 210.420069 
L 170.936397 207.355047 
L 172.408525 202.71295 
L 173.879859 197.98225 
L 176.824115 185.366793 
L 178.296243 176.907477 
L 179.03191 173.4572 
L 179.767578 169.424856 
L 181.239706 160.047277 
L 183.447501 146.619518 
L 185.655296 135.326181 
L 187.127424 129.418771 
L 188.599552 124.129098 
L 189.335219 122.098773 
L 190.070886 120.559711 
L 190.807347 118.649834 
L 191.543014 117.545805 
L 192.278682 116.12724 
L 193.015142 115.142847 
L 194.486477 113.513891 
L 195.222938 113.222834 
L 195.958605 113.133083 
L 196.694272 113.353133 
L 197.430733 113.353516 
L 198.902861 114.849782 
L 200.374195 117.384138 
L 201.110656 118.770284 
L 204.054118 127.644118 
L 215.093094 173.119761 
L 215.829555 177.074069 
L 216.565222 179.830867 
L 218.03735 187.939738 
L 219.509478 194.634634 
L 220.980813 201.599549 
L 221.717274 204.083842 
L 223.188608 209.894998 
L 223.925069 211.844658 
L 225.396403 216.255181 
L 226.132864 217.420272 
L 226.868531 218.234582 
L 228.340659 219.20683 
L 229.076326 219.730179 
L 230.548454 219.202957 
L 232.020582 216.526586 
L 233.491917 213.75377 
L 234.228378 211.691264 
L 235.699712 206.831555 
L 240.116096 186.30973 
L 241.58743 178.653822 
L 243.795226 169.28815 
L 244.531686 167.298468 
L 246.003021 162.623903 
L 246.739482 161.381398 
L 252.6272 148.444234 
L 254.098534 144.55027 
L 258.514125 129.650345 
L 259.986253 123.637691 
L 263.666176 111.292348 
L 269.553894 92.58888 
L 270.289562 91.069949 
L 271.026022 89.953774 
L 271.76169 88.365509 
L 273.233818 86.73947 
L 273.969485 86.45855 
L 274.705152 87.122048 
L 275.441613 88.286278 
L 276.17728 90.370014 
L 276.912947 92.800466 
L 278.385075 99.105087 
L 279.120742 102.165087 
L 280.59287 109.718668 
L 282.064998 118.083642 
L 285.008461 135.228158 
L 290.160512 169.093059 
L 293.103974 184.213226 
L 296.783898 199.108227 
L 298.991693 207.318468 
L 300.463821 212.606419 
L 302.671616 219.052527 
L 303.407283 220.56682 
L 304.143744 221.775184 
L 304.879411 223.28154 
L 306.351539 225.274903 
L 307.087206 225.982871 
L 307.822874 226.261592 
L 309.295002 226.292433 
L 310.030669 225.935389 
L 310.76713 225.032427 
L 311.502797 224.489904 
L 315.918387 214.942529 
L 317.390515 211.191488 
L 320.333978 202.182333 
L 324.013901 186.872049 
L 326.221696 176.683076 
L 326.958157 174.108075 
L 329.165952 165.308069 
L 330.637286 159.740249 
L 331.373747 156.214853 
L 332.845875 150.59893 
L 336.525005 132.633457 
L 337.261466 128.053999 
L 340.940595 109.931307 
L 342.412723 104.75319 
L 343.884851 100.814996 
L 344.620518 99.017248 
L 346.092646 96.224205 
L 347.564774 95.119124 
L 349.036109 94.464472 
L 349.77257 94.483455 
L 350.508237 94.701114 
L 351.243904 94.424976 
L 351.980365 94.494644 
L 352.716032 94.369557 
L 353.452493 94.476617 
L 354.18816 94.795217 
L 356.395955 96.4389 
L 357.868083 98.743548 
L 359.339418 101.74397 
L 360.075878 103.766597 
L 360.811546 105.127304 
L 361.547213 107.020158 
L 363.755802 111.156359 
L 365.227136 113.201842 
L 369.642726 120.740122 
L 370.379187 122.313802 
L 371.114854 124.327488 
L 371.850522 126.750289 
L 377.73824 141.587193 
L 378.474701 143.165177 
L 379.946035 147.297122 
L 382.15383 152.968703 
L 382.890291 155.171885 
L 385.833754 162.376933 
L 386.570214 163.746055 
L 388.041549 167.081095 
L 389.513677 169.549561 
L 390.249344 170.943739 
L 392.457139 173.064629 
L 393.929267 173.838535 
L 394.665728 173.424877 
L 395.401395 173.46968 
L 396.137062 173.216637 
L 396.873523 173.561296 
L 398.344858 171.897004 
L 400.552653 170.245813 
L 401.289114 169.377279 
L 402.024781 169.448305 
L 402.760448 168.504031 
L 403.496909 168.613703 
L 404.232576 168.585037 
L 404.969037 167.324004 
L 405.704704 169.991825 
L 406.440371 165.888427 
L 407.176832 162.870605 
L 407.176832 162.870605 
" style="fill:none;stroke:#ffa500;stroke-linecap:square;"/>
   </g>
   <g id="line2d_23">
    <path clip-path="url(#pb1c3715327)" d="M 57.6 172.990177 
L 58.582477 173.064463 
L 59.565747 172.961333 
L 60.548224 173.409291 
L 61.531494 171.45144 
L 65.462195 174.959838 
L 66.445466 176.161962 
L 67.427942 177.63943 
L 68.410419 183.947776 
L 70.376166 188.83897 
L 73.32439 197.216082 
L 75.290138 202.853189 
L 76.272614 205.280557 
L 78.238362 209.19201 
L 79.221632 210.705504 
L 80.204109 211.948192 
L 81.186586 212.817288 
L 82.169856 213.418064 
L 83.152333 213.79882 
L 84.135603 213.712616 
L 85.11808 213.188627 
L 86.100557 212.381007 
L 87.083827 211.265719 
L 88.066304 209.550002 
L 89.048781 207.194452 
L 91.014528 201.486856 
L 91.997798 198.006947 
L 94.946022 186.172459 
L 99.859994 164.767918 
L 105.756442 141.337566 
L 108.704666 131.601979 
L 110.670413 126.00185 
L 112.63616 121.191314 
L 113.618637 119.018631 
L 114.601907 117.164883 
L 115.584384 115.600371 
L 116.566861 114.329025 
L 117.550131 113.591431 
L 118.532608 113.241643 
L 119.515878 113.223212 
L 120.498355 113.775627 
L 121.480832 114.845386 
L 123.446579 118.1957 
L 124.42985 120.121324 
L 126.394803 124.708201 
L 128.36055 130.224841 
L 129.343027 133.232069 
L 131.308774 140.291207 
L 137.206016 163.391069 
L 139.17097 169.503863 
L 141.136717 174.606408 
L 148.016435 191.048573 
L 149.982182 195.864944 
L 151.947136 200.139647 
L 153.912883 203.573796 
L 155.87863 206.565308 
L 157.844378 208.951018 
L 158.826854 209.922266 
L 159.810125 210.704695 
L 161.775078 211.890876 
L 162.758349 212.08969 
L 163.740826 211.684551 
L 164.724096 210.796966 
L 165.706573 209.291677 
L 166.68905 207.485018 
L 168.654797 202.901145 
L 172.586291 193.007766 
L 177.500262 182.410709 
L 180.448486 175.572513 
L 182.414234 171.343166 
L 185.362458 165.528681 
L 187.327411 162.6102 
L 188.310682 161.353183 
L 190.276429 159.490305 
L 191.258906 158.654432 
L 193.224653 157.359223 
L 195.1904 156.458407 
L 196.172877 156.007565 
L 197.155354 155.71856 
L 199.121101 155.626173 
L 200.104371 156.03553 
L 201.086848 156.662478 
L 207.966566 162.62632 
L 208.949043 163.424407 
L 210.91479 166.015518 
L 212.880538 169.328738 
L 213.863014 171.402273 
L 215.828762 176.208822 
L 218.776986 182.688506 
L 220.742733 185.960067 
L 221.72521 187.494592 
L 223.690957 190.013596 
L 225.656704 191.896002 
L 227.621658 193.803484 
L 228.604928 194.556793 
L 229.587405 195.142431 
L 231.553152 195.835188 
L 233.518899 196.327226 
L 235.484646 196.474039 
L 236.467123 196.242696 
L 237.4496 195.733441 
L 238.43287 195.585703 
L 239.415347 195.274916 
L 240.398618 195.197493 
L 241.381094 195.256427 
L 243.346842 194.70482 
L 245.312589 193.947351 
L 246.295066 193.100962 
L 247.277542 191.871793 
L 248.260813 190.345242 
L 249.24329 188.430595 
L 250.225766 186.103183 
L 255.139738 172.633811 
L 259.071232 161.956038 
L 261.036979 156.818941 
L 263.002726 152.169606 
L 263.985203 150.205386 
L 264.96768 148.959347 
L 265.95095 148.25902 
L 266.933427 147.979952 
L 267.915904 148.461012 
L 268.899174 149.341028 
L 269.881651 150.80749 
L 270.864922 152.648585 
L 271.847398 154.871188 
L 274.795622 163.04365 
L 277.743846 172.027084 
L 280.692864 181.305706 
L 282.657818 186.388895 
L 284.623565 190.823759 
L 286.589312 194.692051 
L 287.571789 195.995002 
L 288.555059 196.929792 
L 289.537536 197.621741 
L 291.503283 198.182996 
L 292.48576 198.36465 
L 293.46903 198.396544 
L 294.451507 198.154569 
L 295.433984 197.643177 
L 299.365478 196.080109 
L 301.331226 194.483589 
L 309.193421 185.432612 
L 312.141645 182.658172 
L 315.089869 178.34314 
L 317.055616 175.06765 
L 320.98711 168.823931 
L 323.935334 163.643963 
L 326.883558 157.959478 
L 329.831782 151.694209 
L 331.79753 147.71868 
L 335.72823 137.295246 
L 337.693978 132.140065 
L 339.659725 127.495063 
L 341.625472 123.557148 
L 343.591219 120.401778 
L 345.556173 117.881792 
L 346.539443 117.110167 
L 347.52192 116.838553 
L 348.504397 116.8753 
L 349.487667 117.420666 
L 350.470144 118.270869 
L 352.435891 121.132669 
L 353.418368 122.869648 
L 354.401638 125.004602 
L 356.367386 130.056476 
L 360.298086 141.826599 
L 364.229581 154.60073 
L 366.194534 160.613914 
L 368.160282 165.952944 
L 371.108506 173.287973 
L 372.091776 180.006205 
L 374.057523 183.109175 
L 376.022477 185.494976 
L 377.005747 181.214481 
L 377.988224 180.157975 
L 378.971494 181.306942 
L 379.953971 181.474267 
L 380.936448 183.41669 
L 381.919718 186.761097 
L 382.902195 185.844107 
L 383.885466 185.673431 
L 383.885466 185.673431 
" style="fill:none;stroke:#ffa500;stroke-linecap:square;"/>
   </g>
   <g id="line2d_24">
    <path clip-path="url(#pb1c3715327)" d="M 57.6 152.054704 
L 58.335667 151.708142 
L 59.072128 154.051007 
L 59.807795 155.627696 
L 60.543462 156.021954 
L 62.751258 159.063353 
L 63.487718 161.468608 
L 64.223386 161.463499 
L 64.959846 162.282304 
L 65.695514 162.322811 
L 66.431181 162.929117 
L 67.167642 163.042925 
L 67.903309 163.334365 
L 68.638976 164.580376 
L 69.375437 165.009496 
L 70.111104 161.787041 
L 70.846771 162.097091 
L 71.583232 162.585741 
L 73.054566 162.794785 
L 73.791027 163.090818 
L 75.263155 163.849947 
L 75.998822 164.207008 
L 76.73449 164.304239 
L 80.414413 166.333585 
L 81.886541 167.6102 
L 82.622208 168.418725 
L 83.357875 168.826525 
L 84.094336 168.389283 
L 84.830003 168.242712 
L 86.302131 167.646363 
L 87.037798 166.918482 
L 87.774259 166.574553 
L 89.245594 165.001181 
L 90.717722 163.183064 
L 92.18985 161.022835 
L 92.925517 159.532891 
L 93.661184 158.36296 
L 94.397645 156.6932 
L 95.869773 153.959738 
L 97.341107 150.766543 
L 98.077568 149.678266 
L 105.436621 132.632375 
L 108.380877 127.1927 
L 110.588672 123.462766 
L 112.796467 120.699362 
L 113.532134 119.290137 
L 114.267802 118.36834 
L 115.73993 115.74386 
L 116.47639 114.712649 
L 117.947725 112.16524 
L 118.684186 111.145385 
L 119.419853 110.338041 
L 120.15552 109.13206 
L 120.891981 108.28384 
L 121.627648 107.628066 
L 123.099776 107.044326 
L 124.57111 106.242798 
L 125.307571 106.193724 
L 126.043238 106.363529 
L 126.779699 106.83065 
L 127.515366 106.829697 
L 130.458829 108.943067 
L 131.930957 110.974942 
L 132.666624 111.626913 
L 133.403085 112.526513 
L 136.346547 117.911311 
L 140.762138 129.196464 
L 141.498598 131.09023 
L 142.234266 133.308239 
L 143.706394 136.780061 
L 144.442061 138.156235 
L 145.914189 142.023113 
L 146.649856 143.809139 
L 148.121984 146.846112 
L 150.329779 151.571281 
L 151.065446 152.577695 
L 151.801907 154.125876 
L 152.537574 155.340471 
L 153.273242 156.053487 
L 154.009702 156.603205 
L 154.74537 157.666595 
L 155.481037 158.266143 
L 156.217498 158.642676 
L 156.953165 159.23301 
L 158.425293 159.205155 
L 159.897421 159.457633 
L 160.633088 160.027073 
L 161.368755 159.62828 
L 162.840883 159.393888 
L 163.57655 159.501476 
L 165.048678 158.531281 
L 165.784346 158.185317 
L 166.520806 158.169443 
L 167.992934 157.181059 
L 170.20073 155.620464 
L 170.936397 154.449722 
L 173.144192 152.461756 
L 173.879859 151.481646 
L 174.61632 151.122394 
L 175.351987 150.306841 
L 176.087654 149.765783 
L 176.824115 148.604359 
L 177.559782 147.678243 
L 179.03191 146.519485 
L 179.767578 145.38038 
L 180.504038 144.570144 
L 181.239706 143.276037 
L 181.975373 142.27746 
L 182.711834 141.826522 
L 183.447501 140.519078 
L 186.390963 137.7007 
L 187.863091 136.54771 
L 190.070886 135.813506 
L 190.807347 135.313687 
L 191.543014 135.1588 
L 193.75081 134.060085 
L 194.486477 134.093323 
L 195.222938 134.240262 
L 197.430733 135.510016 
L 198.1664 135.696859 
L 198.902861 136.274599 
L 199.638528 137.464005 
L 200.374195 138.280276 
L 201.110656 139.530461 
L 202.58199 141.515841 
L 204.054118 144.589561 
L 205.526246 146.096529 
L 206.997581 148.529004 
L 207.734042 149.011503 
L 209.20617 150.915142 
L 209.941837 151.901728 
L 210.677504 152.246243 
L 212.149632 154.123484 
L 212.885299 154.662174 
L 213.62176 155.622011 
L 214.357427 155.895102 
L 215.093094 156.683324 
L 215.829555 156.864 
L 216.565222 157.185264 
L 218.03735 158.030541 
L 218.773018 158.226217 
L 219.509478 158.784647 
L 221.717274 159.686087 
L 223.188608 159.670695 
L 223.925069 160.088822 
L 224.660736 159.945655 
L 226.132864 160.895278 
L 227.604198 161.364067 
L 229.076326 161.858582 
L 229.812787 162.276344 
L 230.548454 162.171598 
L 231.284122 162.388425 
L 232.020582 162.257291 
L 232.75625 161.920992 
L 233.491917 161.7691 
L 234.228378 161.134885 
L 234.964045 160.219644 
L 235.699712 159.935764 
L 237.17184 159.089777 
L 238.643968 157.650378 
L 241.58743 155.902957 
L 242.323891 155.216323 
L 243.795226 154.434077 
L 244.531686 154.357328 
L 245.267354 153.541661 
L 246.003021 152.975115 
L 246.739482 152.694259 
L 247.475149 152.541174 
L 248.210816 151.844614 
L 249.682944 151.418539 
L 250.419405 150.81411 
L 251.155072 150.869805 
L 251.890739 150.224857 
L 252.6272 149.276998 
L 253.362867 149.155498 
L 254.098534 148.565338 
L 254.834995 148.306907 
L 255.570662 147.616876 
L 256.30633 147.45744 
L 257.778458 146.966399 
L 258.514125 146.987726 
L 259.250586 146.762079 
L 260.722714 146.772421 
L 261.458381 146.977163 
L 262.930509 147.046493 
L 264.401843 147.099828 
L 267.346099 148.743893 
L 268.081766 149.507044 
L 268.817434 150.483253 
L 272.497357 154.230486 
L 273.969485 155.553755 
L 274.705152 156.782842 
L 275.441613 157.399487 
L 276.912947 158.042868 
L 277.649408 158.986945 
L 278.385075 159.330732 
L 280.59287 161.009256 
L 281.329331 161.461772 
L 282.064998 161.702557 
L 282.800666 162.740733 
L 283.537126 163.532651 
L 285.008461 164.445229 
L 285.744922 165.447373 
L 286.480589 165.893535 
L 287.216256 165.940772 
L 287.952717 166.521409 
L 288.688384 166.636073 
L 289.424051 166.956373 
L 290.160512 167.915811 
L 290.896179 168.24701 
L 291.63264 168.739611 
L 292.368307 168.870101 
L 293.103974 169.196194 
L 294.576102 169.365101 
L 295.31177 169.8339 
L 296.04823 169.613367 
L 296.783898 169.543749 
L 297.519565 169.806353 
L 298.256026 169.315773 
L 298.991693 169.538053 
L 300.463821 168.75932 
L 301.199488 168.61434 
L 301.935949 168.281656 
L 303.407283 167.771774 
L 304.879411 166.28963 
L 305.615078 165.714987 
L 306.351539 165.287528 
L 307.822874 163.741913 
L 309.295002 162.703047 
L 310.030669 161.757153 
L 312.239258 159.583449 
L 313.710592 157.407045 
L 316.654848 152.644477 
L 317.390515 151.222162 
L 318.126182 149.51916 
L 322.542566 141.835226 
L 323.278234 140.186173 
L 324.013901 139.313336 
L 324.750362 138.253874 
L 326.221696 135.376174 
L 329.901619 127.69343 
L 331.373747 125.146399 
L 332.109414 123.479905 
L 334.31721 120.099148 
L 337.261466 116.739244 
L 338.7328 116.203043 
L 339.469261 115.925192 
L 340.204928 115.949095 
L 340.940595 115.651446 
L 341.677056 115.62669 
L 343.149184 116.033973 
L 344.620518 116.949297 
L 345.356979 117.75053 
L 346.092646 118.354706 
L 346.828314 118.528792 
L 349.77257 122.311215 
L 350.508237 122.956648 
L 351.243904 124.312064 
L 351.980365 125.158314 
L 352.716032 126.547825 
L 353.452493 127.699989 
L 354.923827 130.656608 
L 355.660288 131.567807 
L 356.395955 132.83684 
L 357.131622 134.381453 
L 357.868083 135.068808 
L 360.075878 139.286809 
L 360.811546 140.622194 
L 361.547213 142.418259 
L 363.019341 145.073478 
L 363.755802 146.602248 
L 364.491469 148.581097 
L 365.963597 151.614371 
L 366.699264 153.570999 
L 369.642726 158.345093 
L 371.114854 159.589942 
L 372.586982 161.218186 
L 373.32265 161.654585 
L 374.05911 162.285357 
L 374.794778 162.687925 
L 375.530445 163.347877 
L 376.266906 164.374776 
L 377.002573 164.380652 
L 377.73824 164.926491 
L 378.474701 164.871426 
L 380.682496 165.93666 
L 381.418163 165.984057 
L 382.890291 166.621079 
L 383.625958 166.576137 
L 384.362419 167.450711 
L 385.098086 167.349262 
L 385.833754 167.59714 
L 386.570214 168.038403 
L 388.77801 168.49753 
L 389.513677 168.066428 
L 390.249344 168.177018 
L 391.721472 166.704314 
L 393.1936 165.96654 
L 394.665728 164.710312 
L 395.401395 163.913801 
L 396.137062 163.837249 
L 396.873523 162.477576 
L 398.344858 160.801684 
L 399.081318 160.770811 
L 399.816986 160.560931 
L 400.552653 158.5505 
L 401.289114 159.824878 
L 402.024781 162.804848 
L 402.760448 162.000623 
L 403.496909 160.208166 
L 404.232576 159.486368 
L 404.969037 163.800865 
L 405.704704 163.627846 
L 406.440371 164.23289 
L 407.912499 164.016148 
L 408.648166 163.577794 
L 409.384627 164.050356 
L 410.120294 163.77817 
L 410.855962 165.325066 
L 411.592422 171.616388 
L 412.32809 172.777662 
L 413.063757 173.338507 
L 413.800218 174.099118 
L 413.800218 174.099118 
" style="fill:none;stroke:#ffa500;stroke-linecap:square;"/>
   </g>
   <g id="line2d_25">
    <path clip-path="url(#pb1c3715327)" d="M 57.6 159.844282 
L 58.581683 162.021402 
L 59.563366 163.104147 
L 60.54505 162.939804 
L 61.526733 164.004305 
L 63.490893 168.953059 
L 64.472576 168.098047 
L 65.454259 169.203411 
L 66.435942 166.971816 
L 67.417626 167.805627 
L 68.399309 168.111862 
L 69.380992 168.782446 
L 70.362675 166.134119 
L 72.326835 166.853947 
L 73.308518 167.34883 
L 74.290202 167.44252 
L 75.271885 167.872388 
L 78.216934 169.661075 
L 79.198618 170.072094 
L 80.181094 170.286038 
L 81.162778 170.312622 
L 83.126144 169.786336 
L 84.107827 169.168153 
L 85.08951 168.37054 
L 86.071194 167.918856 
L 89.017037 165.178413 
L 89.99872 164.08058 
L 90.980403 163.433876 
L 91.962086 162.52886 
L 92.94377 161.839036 
L 95.888819 158.756476 
L 96.870502 157.861662 
L 98.834662 155.306492 
L 99.816346 153.829163 
L 100.798029 152.109675 
L 102.761395 147.954956 
L 104.724762 144.38245 
L 106.688922 140.775525 
L 107.670605 139.253153 
L 110.615654 133.85044 
L 112.579021 129.707096 
L 114.542387 125.870043 
L 115.524864 124.300455 
L 118.469914 121.177771 
L 122.396646 119.475701 
L 123.37833 119.450612 
L 124.360806 119.245613 
L 126.324173 119.233915 
L 129.269222 120.089798 
L 131.232589 121.555901 
L 134.178432 124.48304 
L 136.141798 127.164317 
L 139.086848 132.274146 
L 144.977741 141.586901 
L 146.941107 145.49614 
L 152.832 157.949255 
L 154.795366 161.613608 
L 155.77705 163.123004 
L 156.758733 164.904713 
L 157.740416 166.24509 
L 160.686259 170.96667 
L 162.649626 173.279346 
L 165.594675 175.563371 
L 166.576358 176.019096 
L 167.558042 176.333603 
L 168.540518 176.346167 
L 169.522202 176.537963 
L 170.503885 176.115078 
L 171.485568 175.929136 
L 172.467251 175.345857 
L 173.448934 174.55487 
L 176.393984 170.730807 
L 178.358144 167.248569 
L 182.284877 160.140904 
L 183.26656 158.504651 
L 185.229926 154.758802 
L 186.212403 153.098213 
L 187.194086 151.204615 
L 189.157453 148.541577 
L 190.139136 147.321183 
L 192.102502 145.568297 
L 195.048346 144.44441 
L 198.975078 143.225441 
L 203.884288 142.930105 
L 204.865971 143.474344 
L 208.792704 144.296353 
L 209.774387 144.282565 
L 211.737754 144.544022 
L 212.72023 144.77776 
L 213.701914 145.141613 
L 215.66528 146.226713 
L 217.628646 147.755706 
L 218.61033 148.557192 
L 220.573696 149.87456 
L 224.501222 152.689665 
L 225.482906 153.184464 
L 227.446272 154.515793 
L 228.427955 155.197411 
L 234.318848 157.348693 
L 236.282214 157.666314 
L 237.263898 157.771632 
L 238.245581 158.007609 
L 239.228058 158.070727 
L 242.173107 157.260198 
L 243.15479 156.871891 
L 245.118157 155.73953 
L 246.09984 155.238719 
L 247.081523 154.540104 
L 248.064 153.637198 
L 250.027366 152.391546 
L 252.972416 150.265492 
L 253.954099 149.359842 
L 255.917466 148.049626 
L 256.899149 147.61641 
L 257.881626 146.912838 
L 259.844992 145.942272 
L 262.790042 145.370741 
L 264.753408 145.251705 
L 265.735091 145.294216 
L 267.699251 145.558937 
L 268.680934 146.028062 
L 271.625984 146.971935 
L 274.571034 148.369645 
L 276.535194 149.791141 
L 277.516877 150.762346 
L 278.49856 151.437383 
L 280.461926 152.988671 
L 281.44361 153.77529 
L 283.40777 154.836832 
L 285.371136 155.298078 
L 286.352819 155.64334 
L 290.279552 156.265375 
L 291.261235 156.110464 
L 292.242918 156.531879 
L 296.170445 156.26336 
L 298.133811 155.615106 
L 300.097178 154.976242 
L 304.024704 153.854024 
L 306.969754 152.731117 
L 307.951437 152.116782 
L 309.914803 151.162683 
L 310.89728 150.198635 
L 311.878963 149.525614 
L 314.824013 145.91856 
L 315.805696 145.075157 
L 316.787379 143.666725 
L 319.733222 140.501524 
L 323.659955 135.032453 
L 325.623322 131.962913 
L 326.605005 130.185938 
L 327.586688 128.755676 
L 330.532531 125.242758 
L 331.514214 124.332071 
L 335.440947 122.09234 
L 336.42263 121.809667 
L 339.368474 121.871859 
L 340.350157 122.274672 
L 342.313523 124.01231 
L 344.27689 126.694246 
L 347.222733 131.565235 
L 352.131149 140.968718 
L 353.112832 143.202398 
L 355.076992 146.780941 
L 356.058675 148.709147 
L 361.948774 158.522856 
L 362.930458 159.661209 
L 365.876301 163.526001 
L 368.82135 166.894334 
L 369.803034 168.004354 
L 370.784717 169.335034 
L 371.7664 170.218497 
L 372.748877 171.424153 
L 374.712243 173.377606 
L 376.67561 174.521872 
L 378.638976 175.828112 
L 380.602342 176.762381 
L 381.584819 176.915292 
L 383.548186 176.88478 
L 385.511552 176.295722 
L 386.493235 175.629788 
L 388.456602 173.97124 
L 394.347494 167.304363 
L 395.329178 166.601736 
L 396.310861 165.668571 
L 397.292544 165.143364 
L 398.274227 164.462657 
L 399.256704 164.073429 
L 401.22007 162.879738 
L 404.16512 161.176158 
L 406.128486 160.406728 
L 407.11017 159.807201 
L 410.056013 159.191385 
L 411.037696 159.197819 
L 413.001062 159.004363 
L 413.982746 158.492092 
L 415.946112 157.838975 
L 417.910272 157.719018 
L 418.891955 157.674857 
L 419.873638 157.938954 
L 420.855322 158.364087 
L 421.837005 160.716159 
L 422.818688 161.276985 
L 423.800371 164.202732 
L 424.782054 164.781706 
L 425.764531 165.226356 
L 426.746214 165.862023 
L 427.727898 166.242725 
L 428.709581 168.992383 
L 430.672947 165.666248 
L 431.65463 166.236382 
L 432.636314 157.831942 
L 433.617997 157.152322 
L 434.600474 157.161636 
L 435.582157 156.768397 
L 435.582157 156.768397 
" style="fill:none;stroke:#ffa500;stroke-linecap:square;"/>
   </g>
   <g id="line2d_26">
    <path clip-path="url(#pb1c3715327)" d="M 57.6 168.06298 
L 58.582477 170.391852 
L 59.565747 169.733513 
L 60.548224 177.419548 
L 61.531494 179.912413 
L 62.513971 175.836414 
L 63.496448 179.705701 
L 64.479718 177.787432 
L 65.462195 178.461585 
L 67.427942 185.129323 
L 69.39369 186.31546 
L 71.358643 187.389148 
L 72.341914 188.108021 
L 74.307661 189.945765 
L 76.272614 192.185354 
L 79.221632 195.677801 
L 81.186586 197.674608 
L 83.152333 199.61277 
L 84.135603 200.403635 
L 85.11808 200.840783 
L 86.100557 200.968299 
L 87.083827 200.973152 
L 89.048781 200.151549 
L 90.032051 199.27812 
L 91.014528 198.115916 
L 91.997798 196.701511 
L 92.980275 194.844181 
L 93.962752 192.613662 
L 94.946022 189.872849 
L 95.928499 186.748621 
L 99.859994 172.061058 
L 102.808218 160.923141 
L 109.687936 136.579666 
L 110.670413 134.058582 
L 111.65289 131.895664 
L 112.63616 130.096516 
L 113.618637 128.585276 
L 114.601907 127.279205 
L 116.566861 125.447008 
L 117.550131 124.930588 
L 119.515878 124.467845 
L 120.498355 124.429018 
L 121.480832 124.874948 
L 122.464102 125.117673 
L 123.446579 125.725671 
L 125.412326 127.576704 
L 126.394803 128.620809 
L 127.378074 129.852578 
L 128.36055 131.318751 
L 130.326298 135.368929 
L 132.292045 140.760422 
L 143.102464 172.079662 
L 145.068211 177.328733 
L 146.050688 179.518055 
L 148.998912 184.695597 
L 150.964659 187.811273 
L 153.912883 193.052313 
L 156.861107 198.742287 
L 158.826854 201.842017 
L 160.792602 204.316185 
L 162.758349 206.390645 
L 164.724096 207.736467 
L 165.706573 207.961975 
L 166.68905 207.896339 
L 167.67232 207.458844 
L 169.637274 205.681305 
L 170.620544 204.671924 
L 173.568768 200.074878 
L 174.551245 198.115974 
L 176.516992 193.479581 
L 177.500262 190.826417 
L 179.465216 184.559645 
L 182.414234 174.452199 
L 185.362458 165.20316 
L 187.327411 159.712808 
L 188.310682 157.430752 
L 190.276429 153.834825 
L 191.258906 152.378473 
L 193.224653 150.736481 
L 194.20713 150.113057 
L 196.172877 149.256094 
L 198.138624 148.9746 
L 199.121101 149.149552 
L 200.104371 149.613798 
L 201.086848 150.43748 
L 202.069325 151.533008 
L 203.052595 153.046502 
L 204.035072 154.784868 
L 205.018342 156.792479 
L 206.983296 160.066005 
L 208.949043 163.400083 
L 210.91479 167.169286 
L 218.776986 183.519353 
L 219.759462 185.130722 
L 221.72521 187.66186 
L 222.70848 188.687072 
L 223.690957 189.396065 
L 224.673434 189.7982 
L 225.656704 189.901334 
L 226.639181 189.806173 
L 227.621658 189.476261 
L 228.604928 188.937828 
L 229.587405 188.72769 
L 231.553152 187.817456 
L 232.535629 187.142147 
L 233.518899 186.184419 
L 235.484646 183.731167 
L 237.4496 180.680201 
L 238.43287 179.451437 
L 239.415347 177.871383 
L 240.398618 176.844033 
L 241.381094 176.174502 
L 242.363571 175.640691 
L 245.312589 175.014321 
L 246.295066 174.592715 
L 247.277542 174.000606 
L 248.260813 173.196626 
L 251.209037 169.834179 
L 253.174784 166.851218 
L 256.123008 161.62653 
L 257.105485 160.095125 
L 259.071232 157.952372 
L 261.036979 156.738919 
L 263.002726 157.021106 
L 264.96768 157.624713 
L 265.95095 158.139919 
L 266.933427 158.857117 
L 267.915904 160.146952 
L 268.899174 161.663335 
L 269.881651 163.706075 
L 271.847398 169.399516 
L 276.76137 185.214096 
L 279.709594 192.732512 
L 282.657818 199.334627 
L 284.623565 203.383129 
L 285.606042 205.066432 
L 286.589312 206.498574 
L 287.571789 207.479586 
L 289.537536 209.95543 
L 291.503283 211.657049 
L 292.48576 211.996668 
L 293.46903 212.157464 
L 294.451507 211.85621 
L 295.433984 211.195634 
L 296.417254 210.249116 
L 301.331226 203.569809 
L 303.296973 201.026885 
L 304.27945 199.400782 
L 305.261926 197.314709 
L 306.245197 194.716434 
L 308.21015 188.35768 
L 312.141645 173.990495 
L 315.089869 164.447655 
L 316.073139 161.582792 
L 319.021363 151.618924 
L 321.969587 140.608639 
L 325.900288 126.125205 
L 327.866035 120.541658 
L 328.849306 118.128099 
L 330.814259 115.221463 
L 333.763277 113.377248 
L 335.72823 112.325285 
L 337.693978 111.536616 
L 338.677248 111.564811 
L 339.659725 111.755767 
L 340.642202 112.29472 
L 342.607949 114.830075 
L 345.556173 120.67241 
L 347.52192 125.223869 
L 348.504397 127.154982 
L 350.470144 131.787157 
L 354.401638 141.110094 
L 355.384115 143.535267 
L 361.281357 160.719185 
L 363.24631 165.179297 
L 364.229581 167.180611 
L 366.194534 170.823107 
L 367.177805 172.623699 
L 369.143552 176.853393 
L 372.091776 184.176519 
L 373.074253 186.605043 
L 374.057523 189.550448 
L 375.04 191.264778 
L 376.022477 192.514458 
L 377.005747 193.234891 
L 377.988224 193.615359 
L 378.971494 193.681399 
L 379.953971 193.274296 
L 381.919718 191.889069 
L 383.885466 190.049072 
L 384.867942 188.86289 
L 387.816166 183.72978 
L 395.678362 168.245747 
L 396.661632 166.428688 
L 397.644109 165.412426 
L 398.626586 164.008753 
L 399.609856 162.003989 
L 401.575603 159.428217 
L 403.540557 156.196202 
L 404.523827 156.077823 
L 405.506304 151.784999 
L 407.472051 150.313449 
L 408.454528 149.846652 
L 409.437798 149.587563 
L 410.420275 153.830809 
L 411.402752 154.959386 
L 413.368499 158.438284 
L 414.35177 162.084536 
L 415.334246 164.302715 
L 415.334246 164.302715 
" style="fill:none;stroke:#ffa500;stroke-linecap:square;"/>
   </g>
   <g id="line2d_27">
    <path clip-path="url(#pb1c3715327)" d="M 57.6 164.846518 
L 58.580096 169.342946 
L 60.539494 170.976741 
L 61.518797 171.470767 
L 62.498893 166.698497 
L 63.478195 167.382015 
L 64.458291 166.822389 
L 65.438387 167.138774 
L 66.41769 166.125617 
L 67.397786 162.675909 
L 68.377088 163.019202 
L 69.357184 162.883575 
L 70.336486 161.053381 
L 71.316582 161.473959 
L 72.296678 160.882754 
L 74.256077 159.135171 
L 75.235379 158.560589 
L 78.174874 157.473121 
L 80.134272 157.492654 
L 81.114368 157.632192 
L 82.09367 157.515598 
L 83.073766 157.733736 
L 86.012467 157.197233 
L 86.992563 156.657204 
L 87.972659 156.377448 
L 88.951962 155.795002 
L 89.932058 155.623084 
L 90.91136 155.0841 
L 91.891456 154.7325 
L 93.850854 153.667274 
L 95.810253 152.035662 
L 97.769651 149.731648 
L 102.668544 141.661356 
L 107.567437 134.552923 
L 108.547533 132.990431 
L 110.506931 128.979975 
L 113.445632 121.95292 
L 116.385126 116.083542 
L 118.344525 113.331539 
L 121.284019 110.154304 
L 124.223514 107.442624 
L 125.202816 106.796079 
L 126.182912 106.436337 
L 127.162214 106.392409 
L 128.14231 106.485573 
L 129.121613 106.960464 
L 130.101709 107.612808 
L 131.081805 108.56403 
L 133.041203 111.408236 
L 135.979904 116.797375 
L 136.96 118.626048 
L 138.919398 122.779737 
L 142.838195 131.167449 
L 148.717184 146.060862 
L 150.676582 150.117797 
L 151.656678 152.032646 
L 157.534874 161.53433 
L 160.474368 165.606909 
L 162.433766 168.134756 
L 164.393165 170.177595 
L 165.372467 171.137127 
L 168.311962 172.827063 
L 170.27136 173.304534 
L 172.230758 172.724578 
L 174.19095 171.521923 
L 175.170253 171.001179 
L 176.150349 170.348799 
L 178.109747 168.838596 
L 180.069146 166.603554 
L 181.049242 165.684587 
L 183.987942 160.75609 
L 185.947341 157.104247 
L 191.82633 146.61555 
L 192.805632 145.178598 
L 193.785728 143.960318 
L 195.745126 141.20103 
L 196.725222 140.113281 
L 198.684621 138.374197 
L 202.603418 135.793567 
L 203.583514 135.314581 
L 205.542912 134.807704 
L 213.380506 135.412272 
L 214.360602 135.601211 
L 217.300096 136.708775 
L 218.279398 137.379776 
L 219.259494 137.838788 
L 220.238797 138.73488 
L 224.158387 141.688569 
L 225.13769 142.662483 
L 230.036582 146.705535 
L 231.995981 147.954273 
L 232.976077 148.1595 
L 233.955379 148.630042 
L 234.935475 148.780649 
L 235.914778 149.137395 
L 236.894874 149.202579 
L 237.874176 149.523945 
L 240.81367 149.496721 
L 241.793766 149.459529 
L 243.753165 148.908035 
L 246.692659 147.487588 
L 249.63136 145.581955 
L 251.590758 144.280208 
L 252.570854 143.74469 
L 254.530253 142.375239 
L 255.510349 141.924056 
L 257.469747 140.564261 
L 260.409242 139.146731 
L 261.388544 138.863182 
L 264.328038 138.844437 
L 265.307341 138.918738 
L 266.287437 139.14892 
L 267.267533 139.140675 
L 273.145728 140.930575 
L 276.085222 142.398733 
L 277.064525 142.638642 
L 279.023923 143.304274 
L 283.922816 144.317935 
L 285.882214 145.585685 
L 287.841613 146.888388 
L 290.781107 149.516046 
L 291.761203 150.232915 
L 292.740506 151.118953 
L 294.699904 152.539742 
L 295.68 153.423601 
L 297.639398 154.718133 
L 301.558195 157.918213 
L 304.49769 159.489193 
L 305.477786 159.855234 
L 306.457088 160.091697 
L 307.437184 160.09337 
L 308.416486 159.976167 
L 309.396582 159.688814 
L 311.355981 158.652579 
L 314.295475 156.471811 
L 317.234176 153.770759 
L 318.214272 152.486895 
L 319.194368 151.412764 
L 322.133069 146.188609 
L 324.092467 141.731229 
L 327.031962 134.432044 
L 331.930854 123.284119 
L 333.890253 119.070679 
L 335.849651 115.178204 
L 337.80905 111.369692 
L 340.748544 106.968244 
L 341.72864 105.809239 
L 342.707942 105.016019 
L 343.688038 104.600018 
L 344.667341 104.450445 
L 345.647437 104.656237 
L 346.627533 105.322374 
L 347.606835 106.171517 
L 349.566234 108.40378 
L 350.54633 109.779933 
L 353.485824 114.980346 
L 355.445222 119.111571 
L 357.404621 124.155687 
L 362.303514 138.870026 
L 363.282816 141.450681 
L 365.242214 145.757023 
L 368.181709 150.848156 
L 369.161805 152.387936 
L 374.059904 162.035537 
L 375.04 163.369445 
L 376.999398 165.349409 
L 377.979494 166.332618 
L 380.918195 168.439759 
L 382.878387 170.628412 
L 383.85769 171.380413 
L 385.817088 173.083523 
L 386.797184 173.829894 
L 388.756582 174.966132 
L 390.715981 175.763691 
L 391.696077 176.307969 
L 392.675379 176.211784 
L 393.655475 176.324114 
L 394.634778 176.619005 
L 395.614874 176.448617 
L 397.574272 176.584526 
L 398.554368 176.211818 
L 399.53367 175.979056 
L 400.513766 173.984921 
L 402.473165 173.160012 
L 404.432563 171.178268 
L 405.412659 169.921522 
L 406.391962 165.336925 
L 407.372058 164.019274 
L 408.35136 160.962052 
L 409.331456 158.660889 
L 410.310758 155.456794 
L 411.290854 154.058414 
L 412.27095 154.300726 
L 413.250253 150.886166 
L 414.230349 150.408042 
L 414.230349 150.408042 
" style="fill:none;stroke:#ffa500;stroke-linecap:square;"/>
   </g>
   <g id="line2d_28">
    <path clip-path="url(#pb1c3715327)" d="M 57.6 157.693741 
L 58.454707 156.453562 
L 59.308621 162.52901 
L 61.018035 158.886959 
L 61.872742 157.796775 
L 62.726656 161.031513 
L 63.581363 156.805132 
L 64.43607 151.214736 
L 65.289984 149.980977 
L 66.144691 143.639868 
L 66.999398 142.279932 
L 68.708019 138.709531 
L 71.271347 134.55462 
L 72.126054 133.111484 
L 72.980762 131.212798 
L 73.835469 129.992916 
L 74.689382 128.392309 
L 76.398797 124.480399 
L 77.25271 122.83686 
L 78.962125 118.752004 
L 79.816832 117.05666 
L 80.670746 114.817131 
L 81.525453 113.535957 
L 82.38016 111.581139 
L 83.234074 110.059295 
L 84.943488 106.342739 
L 85.798195 104.157845 
L 86.652109 102.64776 
L 87.506816 100.570138 
L 88.361523 99.150631 
L 89.215437 97.339361 
L 90.924851 95.136051 
L 91.779558 93.372982 
L 93.488179 90.802704 
L 94.342886 90.082966 
L 96.051507 87.946882 
L 96.906214 87.332975 
L 98.614835 86.704646 
L 99.469542 86.208717 
L 100.32425 86.276831 
L 101.178957 85.971597 
L 103.742285 87.469812 
L 104.596198 88.402098 
L 105.450906 89.807074 
L 106.305613 90.309603 
L 107.16032 91.220868 
L 108.868941 95.358418 
L 109.723648 96.255206 
L 111.432269 101.744205 
L 112.286976 103.702462 
L 113.995597 109.665869 
L 115.705011 113.22673 
L 119.123046 123.636637 
L 120.831667 131.327226 
L 121.686374 134.295202 
L 122.540288 137.752173 
L 123.394995 141.75516 
L 125.10441 148.229472 
L 126.81303 153.733226 
L 127.667738 157.348222 
L 128.521651 159.659637 
L 129.376358 162.78891 
L 130.231066 164.815613 
L 131.085773 167.876606 
L 131.939686 170.45881 
L 132.794394 174.105422 
L 133.649101 177.258491 
L 135.357722 182.416464 
L 136.212429 185.405239 
L 137.067136 186.844216 
L 137.92105 189.0219 
L 138.775757 190.685905 
L 139.630464 192.0094 
L 140.484378 193.6069 
L 141.339085 194.249706 
L 142.193792 194.683456 
L 143.048499 195.370857 
L 143.902413 196.56112 
L 144.75712 197.113847 
L 147.320448 196.856481 
L 148.175155 196.120935 
L 151.59319 191.500547 
L 152.447104 190.030675 
L 153.301811 188.118012 
L 155.011226 185.381721 
L 158.428467 178.57605 
L 161.846502 169.741124 
L 166.973952 154.418685 
L 167.827866 153.109945 
L 168.682573 151.464243 
L 171.245901 145.263272 
L 173.809229 140.932587 
L 174.663936 138.339456 
L 176.37335 134.915709 
L 177.227264 133.651398 
L 178.081971 132.081575 
L 179.790592 129.954865 
L 180.645299 129.304461 
L 181.500006 128.949529 
L 182.354714 127.410989 
L 183.208627 126.867082 
L 184.063334 124.788517 
L 184.918042 123.502463 
L 185.771955 122.829982 
L 187.48137 120.564106 
L 188.336077 119.303622 
L 189.18999 118.636689 
L 190.044698 118.733478 
L 190.899405 117.389073 
L 191.753318 116.876393 
L 192.608026 117.356847 
L 193.462733 117.322346 
L 195.171354 116.03252 
L 196.880768 116.868461 
L 197.734682 116.675547 
L 198.589389 116.698455 
L 199.444096 116.997477 
L 200.298803 118.029493 
L 201.152717 117.768244 
L 202.007424 118.656047 
L 202.862131 119.849804 
L 203.716045 120.46715 
L 204.570752 121.813164 
L 205.425459 122.565239 
L 208.843494 129.491107 
L 211.406822 136.540389 
L 212.26153 138.982428 
L 213.97015 145.724146 
L 214.824858 148.769719 
L 217.388186 160.351585 
L 219.096806 167.298198 
L 219.951514 169.808073 
L 220.806221 174.021834 
L 221.660134 177.412689 
L 224.224256 185.780916 
L 225.07817 188.981298 
L 225.932877 191.732786 
L 226.787584 194.896172 
L 229.350912 202.560192 
L 230.205619 204.407571 
L 231.059533 206.831972 
L 232.768947 209.135066 
L 233.622861 209.549514 
L 234.477568 210.463719 
L 236.186982 211.764417 
L 237.040896 211.942299 
L 237.895603 211.908464 
L 238.75031 212.076695 
L 239.605018 213.110708 
L 240.458931 212.18419 
L 241.313638 211.919114 
L 242.168346 211.468224 
L 243.022259 210.818873 
L 243.876966 209.204178 
L 244.731674 207.08429 
L 245.586381 205.403368 
L 246.440294 203.453042 
L 248.149709 198.732093 
L 249.85833 193.155234 
L 250.713037 190.991528 
L 252.421658 185.725061 
L 254.984986 176.210722 
L 258.403021 162.026351 
L 260.112435 156.218196 
L 260.966349 154.233148 
L 262.675763 149.061641 
L 263.53047 147.818962 
L 264.384384 146.246699 
L 265.239091 143.781031 
L 266.947712 139.644425 
L 267.802419 136.512045 
L 269.511834 132.110363 
L 270.365747 129.347781 
L 271.220454 127.438279 
L 272.075162 126.212184 
L 272.929075 124.100506 
L 273.783782 123.586606 
L 274.63849 123.217751 
L 275.493197 121.803458 
L 276.34711 121.630124 
L 277.201818 121.094813 
L 278.056525 121.11994 
L 278.910438 120.889752 
L 279.765146 121.23104 
L 280.619853 121.216729 
L 281.47456 121.552137 
L 282.328474 121.617644 
L 283.183181 122.537118 
L 285.746509 126.336652 
L 286.601216 127.928384 
L 288.309837 131.952171 
L 290.019251 135.860643 
L 290.873165 137.246426 
L 295.145907 149.051935 
L 296.000614 150.984732 
L 296.854528 154.454905 
L 298.563942 160.047461 
L 302.836685 176.045264 
L 303.690598 178.239977 
L 304.545306 180.872211 
L 305.400013 182.757086 
L 306.253926 185.05125 
L 309.671962 192.718765 
L 310.526669 193.969598 
L 312.23529 195.678421 
L 313.089997 195.839164 
L 313.944704 196.418903 
L 315.653325 195.817532 
L 316.508032 193.953291 
L 317.362739 192.891544 
L 318.216653 192.150064 
L 319.07136 191.032351 
L 319.926067 188.655208 
L 320.780774 187.048278 
L 322.489395 181.799395 
L 324.198016 174.97187 
L 325.052723 172.48629 
L 325.90743 168.729908 
L 327.616051 162.671653 
L 328.470758 158.814211 
L 329.325466 154.143791 
L 331.034086 146.710513 
L 333.597414 133.363969 
L 335.306829 125.969572 
L 336.160742 122.471999 
L 337.01545 117.997766 
L 338.724864 110.57841 
L 342.142106 95.047249 
L 344.706227 86.305618 
L 345.560141 84.235928 
L 346.414848 81.852573 
L 348.123469 78.3479 
L 348.978176 77.487609 
L 349.832883 76.352369 
L 350.68759 75.821607 
L 351.541504 75.544439 
L 352.396211 74.547423 
L 353.250918 74.727413 
L 354.104832 74.523738 
L 355.814246 75.390075 
L 357.522867 77.025016 
L 360.940902 84.454079 
L 361.79561 86.962179 
L 365.213645 98.822045 
L 366.067558 102.670779 
L 366.922266 105.310335 
L 371.195008 124.262192 
L 372.048922 128.827502 
L 372.903629 132.73259 
L 374.613043 141.215301 
L 375.466957 144.787533 
L 377.176371 152.859124 
L 378.031078 156.272664 
L 378.884992 160.318749 
L 381.44832 170.195731 
L 382.303027 172.88432 
L 383.157734 177.145006 
L 384.012442 175.180201 
L 385.721062 180.164417 
L 386.57577 183.051293 
L 388.28439 187.67642 
L 389.139098 188.854223 
L 390.847718 191.506579 
L 391.702426 192.863437 
L 392.557133 193.930422 
L 393.411046 193.889111 
L 394.265754 194.008249 
L 395.120461 194.697714 
L 395.975168 196.137829 
L 396.829082 197.260109 
L 397.683789 198.648051 
L 398.538496 198.875003 
L 399.39241 199.894553 
L 400.247117 200.005429 
L 401.101824 199.279449 
L 401.956531 197.982796 
L 402.810445 198.033756 
L 403.665152 197.229024 
L 404.519859 195.989051 
L 405.373773 197.943034 
L 406.22848 196.646685 
L 407.083187 201.914031 
L 407.937894 203.538994 
L 408.791808 206.446187 
L 409.646515 210.102371 
L 410.501222 211.583151 
L 411.355136 211.609613 
L 411.355136 211.609613 
" style="fill:none;stroke:#ffa500;stroke-linecap:square;"/>
   </g>
   <g id="line2d_29">
    <path clip-path="url(#pb1c3715327)" d="M 57.6 177.687867 
L 61.568 177.849339 
L 65.536 174.960027 
L 69.504 172.820091 
L 73.472 171.725012 
L 77.44 170.846051 
L 81.408 166.692283 
L 85.376 162.07414 
L 89.344 156.39064 
L 93.312 146.773122 
L 97.28 137.706522 
L 101.248 128.584133 
L 105.216 119.149423 
L 109.184 112.887293 
L 113.152 109.081487 
L 117.12 108.294137 
L 121.088 110.848863 
L 125.056 117.353923 
L 129.024 128.824744 
L 132.992 139.767174 
L 136.96 150.326137 
L 140.928 165.135801 
L 144.896 174.03054 
L 148.864 185.544609 
L 152.832 192.760014 
L 156.8 196.92001 
L 160.768 199.186565 
L 164.736 198.376338 
L 168.704 193.420678 
L 172.672 184.25379 
L 176.64 174.154582 
L 180.608 163.912211 
L 184.576 152.167596 
L 188.544 143.294187 
L 192.512 137.137577 
L 196.48 134.671877 
L 200.448 138.624446 
L 204.416 144.036108 
L 208.384 152.503347 
L 212.352 162.460832 
L 216.32 172.32359 
L 220.288 182.472511 
L 224.256 190.62848 
L 228.224 195.871122 
L 232.192 196.27024 
L 236.16 191.285347 
L 240.128 187.611815 
L 244.096 179.281557 
L 248.064 169.655299 
L 252.032 160.769059 
L 256 152.701228 
L 259.968 144.520526 
L 263.936 139.559205 
L 267.904 137.573337 
L 271.872 137.575197 
L 275.84 142.121381 
L 279.808 149.309938 
L 283.776 159.386604 
L 287.744 168.063961 
L 291.712 174.941235 
L 295.68 181.21192 
L 299.648 188.346258 
L 303.616 192.655158 
L 307.584 193.501622 
L 311.552 189.782156 
L 315.52 183.738848 
L 319.488 171.04878 
L 323.456 157.224564 
L 327.424 145.18856 
L 331.392 132.565087 
L 335.36 121.852236 
L 339.328 116.125588 
L 343.296 114.773971 
L 347.264 114.581108 
L 351.232 119.278102 
L 355.2 126.515031 
L 359.168 132.64127 
L 363.136 139.923797 
L 367.104 147.296997 
L 371.072 154.907782 
L 375.04 164.635703 
L 379.008 169.829584 
L 382.976 174.938176 
L 386.944 178.165617 
L 390.912 180.473093 
L 394.88 182.740747 
L 398.848 182.859183 
L 402.816 181.150718 
L 406.784 176.498291 
L 410.752 164.560913 
L 414.72 164.560913 
" style="fill:none;stroke:#0000ff;stroke-linecap:square;stroke-width:2;"/>
   </g>
   <g id="patch_3">
    <path d="M 57.6 307.584 
L 57.6 41.472 
" style="fill:none;stroke:#000000;stroke-linecap:square;stroke-linejoin:miter;stroke-width:0.8;"/>
   </g>
   <g id="patch_4">
    <path d="M 414.72 307.584 
L 414.72 41.472 
" style="fill:none;stroke:#000000;stroke-linecap:square;stroke-linejoin:miter;stroke-width:0.8;"/>
   </g>
   <g id="patch_5">
    <path d="M 57.6 307.584 
L 414.72 307.584 
" style="fill:none;stroke:#000000;stroke-linecap:square;stroke-linejoin:miter;stroke-width:0.8;"/>
   </g>
   <g id="patch_6">
    <path d="M 57.6 41.472 
L 414.72 41.472 
" style="fill:none;stroke:#000000;stroke-linecap:square;stroke-linejoin:miter;stroke-width:0.8;"/>
   </g>
  </g>
 </g>
 <defs>
  <clipPath id="pb1c3715327">
   <rect height="266.112" width="357.12" x="57.6" y="41.472"/>
  </clipPath>
 </defs>
</svg>
